<svg xmlns="http://www.w3.org/2000/svg" width="40" height="40" viewBox="0 0 40 40">
  <path id="Form_1" data-name="Form 1" d="M27.994,28.1a0.5,0.5,0,0,1-.489.4,0.486,0.486,0,0,1-.241-0.062L21.225,25.11l-3.288,5.639A0.5,0.5,0,0,1,17.5,31a0.492,0.492,0,0,1-.131-0.017A0.5,0.5,0,0,1,17,30.5V22.835L8.323,19.457a0.5,0.5,0,0,1-.01-0.929l23-9.505a0.465,0.465,0,0,1,.065,0,0.452,0.452,0,0,1,.183-0.008,0.426,0.426,0,0,1,.133.027,0.382,0.382,0,0,1,.057.011,0.45,0.45,0,0,1,.094.105,0.424,0.424,0,0,1,.079.06c0.007,0.01,0,.024.008,0.035a0.471,0.471,0,0,1,.045.2,0.453,0.453,0,0,1,.012.115c0,0.008,0,.015,0,0.023Zm-7.647-3.473L18,23.338v5.308Zm-10.5-5.651,7.546,2.936L29.132,11.007Zm8.5,3.412,8.806,4.846,3.522-16.3Z"/>
</svg>
