<svg xmlns="http://www.w3.org/2000/svg" width="120" height="140" viewBox="0 0 120 140">
  <defs>
    <style>
      .exit-button-icon-1 {
        fill: #fff;
        fill-rule: evenodd;
      }
    </style>
  </defs>
  <path id="Form_1" data-name="Form 1" class="exit-button-icon-1" d="M44.035,28.75a7.09,7.09,0,0,0,1.22.414,3.907,3.907,0,0,0,2.693-.777S48,30.874,44.8,30.563a2.43,2.43,0,0,0,2.8.777s0,1.813-3.05,1.451c0,0,1.22,1.553,2.491,1.3,0,0-.508,2.072-2.948.725a3.073,3.073,0,0,0,2.388,2.331s-1.321,2.538-3.609-.777c0,0,.967,4.093,2.8,4.611a1.408,1.408,0,0,1-2.389.207,15.292,15.292,0,0,1-2.135-4.2s-0.509,2.746,1.068,3.834a1.515,1.515,0,0,1-2.39-.571c-0.609-1.035-.457-3.574-0.457-3.574s-0.813,1.865-.1,2.85c0,0-1.575-.311-1.627-1.5-0.02-.483,0-1.268.034-2.035a3.281,3.281,0,0,0-.452,3.43,5.165,5.165,0,0,1,2.452,1.868,2.7,2.7,0,0,0-.331.142c0.659,0.529,1.743,1.284,2.45,1.16a1.114,1.114,0,0,0,.963-0.736,1.1,1.1,0,0,1,1.532,1.1,0.532,0.532,0,0,0-.511-0.405s-0.567.318-.793-0.087a1.9,1.9,0,0,0-.709.55,3.305,3.305,0,0,1,2.126.9,1.16,1.16,0,0,1-.056,1.155,0.606,0.606,0,0,0-.256-0.636,0.576,0.576,0,0,1-.709-0.578,0.571,0.571,0,0,0-.652-0.057,0.536,0.536,0,0,1-.652-0.26,4.056,4.056,0,0,1,.617,2.022c-0.006.039-.012,0.079-0.021,0.116-0.2.838-.256,0.636-0.539,0.694,0,0,.255-0.058.2-0.52,0,0-.539-0.607-0.086-0.925a0.5,0.5,0,0,0-.227-0.521,0.936,0.936,0,0,1-.623-0.751,1.054,1.054,0,0,1-.766.2c-0.142-.173-0.256-0.2-0.4-0.029a0.544,0.544,0,0,1-.453.2,0.5,0.5,0,0,0-.17.549,0.876,0.876,0,0,1,.028-1.214,2.975,2.975,0,0,0,1.475-.23,6.189,6.189,0,0,0-1.843-.81,1.781,1.781,0,0,1-.664-0.252,1.069,1.069,0,0,0-.151.727,3.146,3.146,0,0,1-2.08-2.316,3.211,3.211,0,0,0-.214,1.215c0,1.438,1.144,1.088,1.144,1.088a0.762,0.762,0,0,1-.84.933,1.826,1.826,0,0,0,1.45.971c1.029,0.078.457-.738,0.457-0.738,1.449-.117.686,1.2,0.686,1.2a1.645,1.645,0,0,1,1.716.506,0.957,0.957,0,0,1-.572,1.514c0.648-.622.076-1.2-0.381-0.971a0.573,0.573,0,0,1-.686,0c0.381,1.671-1.03,1.244-1.03,1.244,0.534-.506-0.013-0.908-0.838-1.4a3.651,3.651,0,0,1-1.335-1.515c0,2.68,1.716,2.447,1.716,2.447,0.037,1.671-1.449.7-1.449,0.7a1.391,1.391,0,0,1-.686,1.321,1.391,1.391,0,0,1-.686-1.321s-1.487.971-1.449-.7c0,0,1.715.233,1.715-2.447a3.645,3.645,0,0,1-1.334,1.515c-0.826.491-1.372,0.893-.839,1.4,0,0-1.41.427-1.029-1.244a0.573,0.573,0,0,1-.686,0c-0.457-.233-1.029.349-0.381,0.971a0.958,0.958,0,0,1-.573-1.514,1.646,1.646,0,0,1,1.717-.506s-0.763-1.321.686-1.2c0,0-.572.816,0.457,0.738a1.823,1.823,0,0,0,1.449-.971,0.761,0.761,0,0,1-.839-0.933s1.144,0.35,1.144-1.088a3.206,3.206,0,0,0-.215-1.215,3.144,3.144,0,0,1-2.079,2.316,1.069,1.069,0,0,0-.151-0.727,1.78,1.78,0,0,1-.664.252,6.189,6.189,0,0,0-1.843.81,2.975,2.975,0,0,0,1.475.23,0.877,0.877,0,0,1,.028,1.214,0.5,0.5,0,0,0-.171-0.549,0.546,0.546,0,0,1-.453-0.2c-0.142-.173-0.255-0.144-0.4.029a1.054,1.054,0,0,1-.766-0.2,0.936,0.936,0,0,1-.623.751,0.5,0.5,0,0,0-.227.521c0.453,0.318-.085.925-0.085,0.925-0.057.462,0.2,0.52,0.2,0.52-0.284-.058-0.34.144-0.539-0.694-0.009-.037-0.015-0.077-0.021-0.116a4.059,4.059,0,0,1,.616-2.022,0.535,0.535,0,0,1-.651.26,0.573,0.573,0,0,0-.653.057,0.576,0.576,0,0,1-.709.578,0.606,0.606,0,0,0-.255.636,1.162,1.162,0,0,1-.057-1.155,3.307,3.307,0,0,1,2.127-.9,1.9,1.9,0,0,0-.709-0.55c-0.227.405-.794,0.087-0.794,0.087a0.532,0.532,0,0,0-.51.405,1.1,1.1,0,0,1,1.531-1.1,1.117,1.117,0,0,0,.964.736c0.707,0.124,1.791-.631,2.45-1.161a2.772,2.772,0,0,0-.331-0.141,5.168,5.168,0,0,1,2.451-1.868,3.281,3.281,0,0,0-.451-3.43c0.032,0.767.054,1.552,0.033,2.035-0.051,1.192-1.626,1.5-1.626,1.5,0.711-.985-0.1-2.85-0.1-2.85s0.152,2.539-.457,3.574a1.515,1.515,0,0,1-2.39.571c1.577-1.088,1.067-3.834,1.067-3.834a15.276,15.276,0,0,1-2.134,4.2,1.408,1.408,0,0,1-2.389-.207c1.829-.518,2.8-4.611,2.8-4.611-2.287,3.315-3.609.777-3.609,0.777a3.075,3.075,0,0,0,2.389-2.331c-2.441,1.347-2.949-.725-2.949-0.725,1.271,0.258,2.491-1.3,2.491-1.3-3.05.362-3.05-1.451-3.05-1.451a2.431,2.431,0,0,0,2.8-.777c-3.2.311-3.152-2.176-3.152-2.176a3.911,3.911,0,0,0,2.694.777,7.09,7.09,0,0,0,1.22-.414c-3.61-.207-2.541-2.538-2.541-2.538,0.915,1.553,3.151.776,3.151,0.776-1.728-.724-0.711-1.969-0.711-1.969,0.3,1.5,2.592.882,3.965,1.451s0.2,1.71.2,1.71c0.2-.57-1.83-0.518-2.033,2.227s1.932,3.16,1.932,3.16c0.343-.7,1.454-0.233,1.989.043a0.972,0.972,0,0,0,.7-0.808,0.486,0.486,0,0,1-.623-0.087A2.08,2.08,0,0,0,34.3,31.6a1.217,1.217,0,0,1,.391-0.643,1.289,1.289,0,0,1-.286-0.046c-0.136-.037-0.276-0.182-0.043-0.386,0,0,.293.331,0.728-0.134a1.357,1.357,0,0,0-.183-0.5,0.969,0.969,0,0,0-.994.035s-0.592-.716,1.212-0.581c0,0,0-.023.007-0.053a1.04,1.04,0,0,0-1.172.034c-1.033.612-1.589,0.206-1.608-.209a0.492,0.492,0,0,1,.461-0.469s-0.464,1.147,1.1.5a1.806,1.806,0,0,1,1.158-.168,0.7,0.7,0,0,0-.659-0.336,0.659,0.659,0,0,0-1.076-.009,0.581,0.581,0,0,1,.374-1.033c1.072-.251,2.662-0.325,3.156.086a1.572,1.572,0,0,1,.48.65c0.141,0.389.518,0.775,0.9,0.5,0.031,0.049-.154.93-1.11-0.109a8.487,8.487,0,0,1,.3,1.138c0.071,0.438.463,1.2,0.825,0.767,0,0,.191.344-0.317,0.375a1.029,1.029,0,0,1-.862-0.867s-0.284,1.4.343,1.733c0.162,0.086.241-.131,0.241-0.131s0.227,0.444-.317.374a0.443,0.443,0,0,1-.486-0.466,1.225,1.225,0,0,0,.517,1.219,0.319,0.319,0,0,1-.43.049,1.024,1.024,0,0,0,.974.772c0.43-.241,1.759-0.9,2.141-0.125,0,0,2.136-.414,1.932-3.16s-2.236-2.8-2.033-2.227c0,0-1.169-1.139.2-1.71s3.661,0.052,3.966-1.451c0,0,1.017,1.245-.712,1.969,0,0,2.237.777,3.153-.776C46.577,26.212,47.645,28.543,44.035,28.75Zm-8.447-1.6a6.178,6.178,0,0,0-.957.078l-1.352-1.612s0.425-.331.51,0.074a0.322,0.322,0,0,1,.51-0.026,4.431,4.431,0,0,0,.165.534,0.666,0.666,0,0,0,.734.011c0.223-.157.194-0.493-0.268-0.53,0,0-.11-0.4.411-0.275,0,0-.059-0.4.247-0.4s0.249,0.4.249,0.4c0.52-.125.411,0.275,0.411,0.275-0.462.037-.491,0.373-0.269,0.53a0.668,0.668,0,0,0,.735-0.011,4.259,4.259,0,0,0,.165-0.534,0.322,0.322,0,0,1,.51.026c0.085-.4.509-0.074,0.509-0.074l-1.352,1.612A6.214,6.214,0,0,0,35.588,27.148Zm9.858,79.872H25.781l7.285,7.129a0.491,0.491,0,0,1,0,.7,0.518,0.518,0,0,1-.721,0l-8.154-7.98a0.491,0.491,0,0,1,0-.7l8.154-7.979a0.518,0.518,0,0,1,.721,0,0.491,0.491,0,0,1,0,.7l-7.285,7.128H45.447A0.5,0.5,0,1,1,45.447,107.02Z"/>
  <path id="Exit" class="exit-button-icon-1" d="M71.975,111.166v-1.343H68.161v-2.255h3.454V106.26H68.161v-2.254h3.814v-1.344H66.722v8.5h5.253Zm10.1-8.5H80.387L78.4,105.781l-1.979-3.119H74.69l2.819,4.246-2.843,4.258h1.691l2-3.107,1.979,3.107h1.727l-2.818-4.246Zm4.467,8.5v-8.5H85.082v8.5h1.463Zm9.945-7.148v-1.356H89.522v1.356h2.758v7.148H93.72v-7.148h2.77Z"/>
</svg>
