<svg xmlns="http://www.w3.org/2000/svg" width="120" height="48" viewBox="0 0 120 48">
  <path id="Form_1" data-name="Form 1" d="M33.961,24.076h0Zm81.331,7.215h0.041a3.958,3.958,0,0,0,4.191-4.036,4.7,4.7,0,0,0-.978-3.031,3.464,3.464,0,0,0-2.74-1.271h-0.022c-1.506,0-2.9,1.118-4.275,3.418l-0.109.183-0.07-.2c-0.346-.986-0.655-1.807-0.839-2.3-0.129-.343-0.186-0.5-0.2-0.547a0.553,0.553,0,0,0-.568-0.4,1.029,1.029,0,0,0-.538.168,0.616,0.616,0,0,0-.307.419l-0.009.027c-1.372,4.186-2.5,6.22-3.461,6.22a0.433,0.433,0,0,1-.33-0.134,2.852,2.852,0,0,1-.1-1.811,16.121,16.121,0,0,0,.1-2.189,2.232,2.232,0,0,0-2.267-2.437c-1.733,0-2.856,1.8-3.373,2.881l-0.154.321-0.034-.353c-0.129-1.332-.586-2.922-2.028-2.933-1.682,0-2.964,1.932-3.745,3.553l-0.21.434,0.02-.48c0.093-2.162.17-3.438,0.227-3.793a0.9,0.9,0,0,0-.092-0.73,0.762,0.762,0,0,0-.636-0.156c-0.538.033-.814,0.354-1.228,1.429-0.681,1.766-2.413,5.873-3.8,5.873a0.837,0.837,0,0,1-.651-0.272c-0.58-.651-0.348-2.41-0.027-4.844l0.024-.184c0.152-1.153-.108-1.4-0.747-1.514a1.107,1.107,0,0,0-.194-0.019c-0.511,0-.75.479-1.227,1.809C84.092,26.759,83,29.25,81.723,29.25a0.862,0.862,0,0,1-.139-0.011c-0.677-.112-0.662-1.1-0.643-2.339a13.059,13.059,0,0,0-.085-2.125,2.074,2.074,0,0,0-1.942-2.015c-2.011,0-3.367,2.52-4,4.021l-0.143.34-0.047-.365c-0.085-.651-0.2-1.683-0.245-2.9V23.816l0.023-.028c3.763-4.635,5.451-7.98,5.474-10.846,0.014-1.831-.849-2.931-2.309-2.942-1.067,0-3.606.87-4.489,8.931-0.164,1.495-.254,3.027-0.267,4.555v0.03l-0.017.024c-1.721,2.438-5.4,6.633-8.993,6.633-3.25,0-5.843-2.573-5.843-7.115,0-6.089,4.4-9.827,7.719-9.827H65.8a2.814,2.814,0,0,1,1.786.569,1.908,1.908,0,0,1,.7,1.545,2.777,2.777,0,0,1-.556,1.69c-0.07.107-.139,0.214-0.2,0.327a0.425,0.425,0,0,0-.037.422,0.676,0.676,0,0,0,.581.238c0.789,0,1.982-1.117,2-2.8,0.014-1.762-1.5-3.578-4.21-3.578-4.1,0-9.612,4.4-9.612,11.54,0,5.048,3.234,8.537,7.616,8.537,3.109,0,6.185-2.178,8.909-5.817l0.167-.221,0.012,0.274c0.058,1.331.157,2.381,0.229,3.148,0.046,0.493.08,0.848,0.079,1.045a1.41,1.41,0,0,0,.22.912,0.922,0.922,0,0,0,.757.273c0.612,0,.734-0.409.976-1.415l0.07-.288c0.3-1.22,1.413-5.2,3.086-5.2a0.848,0.848,0,0,1,.633.237,3.051,3.051,0,0,1,.282,2.081,11.4,11.4,0,0,0,0,1.728c0.157,1.544.839,2.3,2.084,2.309,1.278,0,2.612-1.347,3.315-2.6l0.133-.236,0.052,0.265c0.13,0.67.711,2.869,2.53,2.869,1.649,0,3.062-1.7,4.613-5.195l0.2-.457-0.012.5c-0.033,1.325-.106,2.943-0.107,4.193,0,0.967.1,1.337,0.556,1.337,0.032,0,.067,0,0.1,0A0.9,0.9,0,0,0,93.64,30.7c1.166-3.978,2.174-5.831,3.173-5.831,0.978,0.007,1.07,1.757,1.149,4.849l0.005,0.216c0.024,1.082.063,1.56,0.75,1.565,0.521,0,.65-0.4.92-1.386,0.051-.188.108-0.395,0.173-0.617,0.942-3.2,1.723-4.5,2.695-4.5a0.986,0.986,0,0,1,.893,1.122,11.8,11.8,0,0,1-.089,1.806,12.056,12.056,0,0,0-.092,1.663,1.825,1.825,0,0,0,1.97,1.953c1.583,0,3.013-1.811,4.264-5.384l0.087-.249,0.1,0.245c0.227,0.561.523,1.321,0.8,2.228l0.01,0.035-0.015.033a21.365,21.365,0,0,0-2.079,7.133c-0.016,2.064.939,3.406,2.432,3.417h0.026c0.812,0,2.706-.319,2.742-3.273a19.952,19.952,0,0,0-.868-5.088l-0.068-.248,0.219,0.142A4.581,4.581,0,0,0,115.291,31.292Zm-40.8-10.016c0.034-.74.1-1.461,0.188-2.142,0.586-4.391,1.809-7.458,2.975-7.458h0.005c0.556,0,.834.415,0.828,1.222-0.015,1.983-1.3,4.821-3.815,8.437l-0.2.283Zm37.186,15.787a0.919,0.919,0,0,1-.768.364,1,1,0,0,1-.841-0.378c-0.532-.7-0.382-2.331.486-5.3,0.1-.354.216-0.711,0.335-1.06l0.1-.3,0.089,0.3C112.086,34.119,112.287,36.262,111.672,37.062Zm0.314-8.78-0.018-.033-0.037-.114,0.017-.034c1.153-2.325,2.475-3.659,3.625-3.659h0.012c1.3,0.01,2.2,1.153,2.184,2.78a2.538,2.538,0,0,1-.906,2.044,2.735,2.735,0,0,1-1.7.6A4.2,4.2,0,0,1,111.986,28.283Zm3.587-3.742h0ZM38.419,30.908c1.78-.14,3.193-2.509,3.718-3.521l0.135-.261,0.051,0.288c0.252,1.424,1.043,3.817,3.52,3.835h0.021A5.366,5.366,0,0,0,49.377,29.4l0.09-.089,0.066,0.107a3.562,3.562,0,0,0,3.116,2.013A2.939,2.939,0,0,0,55.535,29.3a0.7,0.7,0,0,0-.158-0.55,0.372,0.372,0,0,0-.55-0.034l-0.079.074a3.542,3.542,0,0,1-1.98,1.13,2.27,2.27,0,0,1-2.231-1.755l-0.02-.051,0.034-.043c2.766-3.54,4.707-8.942,4.515-12.564-0.088-1.677-.587-3.676-2.458-3.676q-0.069,0-.14,0a2.786,2.786,0,0,0-1.938.993c-1.736,1.9-2.645,6.58-2.315,11.92a11.762,11.762,0,0,0,.585,3.081l0.018,0.052-0.036.042a4.4,4.4,0,0,1-2.851,1.82c-1.955,0-1.889-3.207-1.735-5.868a1.828,1.828,0,0,0-.09-1.146,0.787,0.787,0,0,0-.633-0.224H43.436c-0.7,0-.841.14-1.2,1.15-0.74,2.1-2.2,5.622-3.673,5.622a1.137,1.137,0,0,1-.932-0.405c-0.713-.891-0.172-3.113.263-4.9,0.078-.321.153-0.629,0.218-0.915a1.076,1.076,0,0,0-.087-0.919,1,1,0,0,0-.864-0.23c-0.63.049-1.032,0.307-1.227,1.479l-0.039.244-0.147-.174a2.069,2.069,0,0,0-1.807-.871c-0.087,0-.178,0-0.271.011a4.929,4.929,0,0,0-3.157,1.89,6.236,6.236,0,0,0-1.39,4.5c0.007,0.087.02,0.17,0.033,0.253l0.007,0.046-0.032.035a2.644,2.644,0,0,1-1.872.994C26.3,30.3,25.747,29.6,25.747,28.432c0-1.965,1.361-7.887,1.361-10.031,0-2.282-1.039-3.524-2.843-3.537H24.237c-2.634,0-4.688,2.926-6.653,8.944-0.18.551-.376,1.188-0.544,1.738l-0.276.9,0.082-.941c0.182-2.1.308-4.136,0.373-6.063,0.1-2.909-.3-4.781-1.229-5.723a2.7,2.7,0,0,0-2.018-.765H13.951c-3.224,0-4.768,5.32-5.893,9.075C7.719,23.168,7.049,25.724,6.6,27.471l0.265-.421c0.2-2.2.773-7.712,0.735-10.7-0.04-3.208-1.132-4.646-3.54-4.664H4.033a3.764,3.764,0,0,0-2.7,1.151A4.536,4.536,0,0,0,0,15.97a1.228,1.228,0,0,0,.73,1.221,0.506,0.506,0,0,0,.359-0.417c0.745-2.41,1.709-3.581,2.946-3.581a1.551,1.551,0,0,1,1.181.452c0.967,1.015.791,3.755,0.472,8.729-0.1,1.6-.219,3.42-0.318,5.486-0.017.354-.039,0.7-0.061,1.022-0.094,1.435-.169,2.569.388,2.653a1.176,1.176,0,0,0,1.435-.878c0.357-1.04,1.159-3.882,2.71-9.076,1.488-4.984,2.613-6.8,4.051-6.8,1.662,0,1.786,2.793,1.481,8.685-0.065,1.249-.152,2.664-0.218,4.2-0.009.216-.02,0.426-0.03,0.628-0.064,1.274-.114,2.281.258,2.667a0.642,0.642,0,0,0,.483.181c0.72,0,.937-0.618,1.3-1.643,0.064-.181.131-0.374,0.206-0.576,2.469-6.664,4.294-12.445,6.744-12.445,0.735,0,1.306.584,1.306,1.723,0,2.629-1.314,7.711-1.314,10.286a3.5,3.5,0,0,0,.784,2.334,2.776,2.776,0,0,0,2.13.923h0.019a3.912,3.912,0,0,0,2.539-1.158l0.081-.072,0.065,0.086a2.809,2.809,0,0,0,2.482,1.078,4.176,4.176,0,0,0,3.276-2.693l0.093-.245L35.67,28.99A2.623,2.623,0,0,0,38.419,30.908ZM52.45,13.495h0.026a0.561,0.561,0,0,1,.454.254c0.6,0.8.614,3.719-.426,7.041a23.443,23.443,0,0,1-2.311,5.186l-0.146.238-0.037-.276c-0.108-.8-0.161-1.639-0.2-2.352C49.545,18.566,51.1,13.564,52.45,13.495Zm-16.9,11.734c-0.533,2.1-1.555,4.631-3.4,4.776-0.051,0-.1.006-0.15,0.006a1.291,1.291,0,0,1-1.273-1.455,4.949,4.949,0,0,1,1.356-3.607,2.69,2.69,0,0,1,1.87-.97h0.013a1.833,1.833,0,0,1,1.577,1.189l0.013,0.03ZM77.649,11.773h0ZM44.1,17.537a1.179,1.179,0,1,0-.019,2.356l0.01,0.1h0v-0.1A1.179,1.179,0,1,0,44.1,17.537Zm42.763,0a1.179,1.179,0,1,0-.018,2.356l0.01,0.1h0v-0.1A1.179,1.179,0,1,0,86.863,17.537Zm33.3,12.426a0.817,0.817,0,1,0,.836.818A0.828,0.828,0,0,0,120.164,29.963Zm0,1.516a0.7,0.7,0,1,1,.715-0.7A0.7,0.7,0,0,1,120.164,31.479Zm0.371-.912a0.247,0.247,0,0,0-.3-0.262h-0.371v0.943h0.122V30.835h0.173l0.287,0.413h0.137l-0.287-.413A0.256,0.256,0,0,0,120.535,30.567Zm-0.4.163h-0.155V30.411H120.2a0.179,0.179,0,0,1,.216.156C120.414,30.723,120.27,30.73,120.138,30.73Z"/>
</svg>
