<svg xmlns="http://www.w3.org/2000/svg" width="590" height="41" viewBox="0 0 590 41">
  <defs>
    <style>
      .onboarding-finish {
        fill: #fff;
        fill-rule: evenodd;
      }
    </style>
  </defs>
  <path id="Thank_you_for_using_Semplice_" data-name="Thank you for using Semplice!" class="onboarding-finish" d="M8.639,31.143h5.668V7h8.607V1.745H0.032V7H8.639V31.143Zm17.634,0h5.458V17.158a3.569,3.569,0,0,1,3.862-3.864c2.771,0,3.946,1.932,3.946,4.242V31.143H45V16.318c0-4.914-3.023-8.063-7.767-8.063a6.8,6.8,0,0,0-5.416,2.772H31.731V0.486H26.273V31.143Zm37.073,0h4.576V17.032c0-6.383-4.282-8.777-9.278-8.777-5.332,0-8.187,2.982-9.152,6.383l4.534,1.89c0.546-1.722,1.385-3.654,4.7-3.654,2.645,0,3.779,1.092,3.779,2.352s-0.462,1.722-5.752,3.024c-5.332,1.3-7.557,2.94-7.557,6.93,0,3.36,2.267,6.593,8.019,6.593,4.492,0,6.046-2.772,6.046-2.772h0.084v2.142Zm-5.5-9.113c4.324-1.092,4.492-1.638,4.744-2.1h0.084v3.864c0,1.638-1.385,3.276-4.954,3.276-1.931,0-3.275-.588-3.275-2.268C54.445,23.878,54.739,22.786,57.846,22.03Zm15.535,9.113h5.458V17.536a3.959,3.959,0,0,1,4.282-4.242c2.981,0,3.9,1.722,3.9,4.62V31.143h5.458V16.57c0-5.25-2.981-8.315-7.893-8.315a7.725,7.725,0,0,0-5.878,2.772H78.629V8.885H73.381V31.143Zm24.772,0h5.457V24.172l2.813-3.192h0.084l6.8,10.163h6.046l-8.732-13.229,8.018-9.029H111.8l-8.1,9.2H103.61V0.486H98.153V31.143Zm36.36,9.449h5.415L152.733,8.885h-5.542L141.44,23.962h-0.084L135.6,8.885h-5.542l8.9,21.166ZM164.406,26.86c-3.065,0-5.038-2.31-5.038-6.846s2.057-6.845,5.038-6.845,5.038,2.394,5.038,6.845S167.471,26.86,164.406,26.86Zm0,4.914c5.836,0,10.412-4.158,10.412-11.759s-4.87-11.759-10.412-11.759-10.412,4.158-10.412,11.759S158.57,31.773,164.406,31.773Zm14.612-8.525c0,4.914,2.183,8.525,7.6,8.525A7.162,7.162,0,0,0,192.41,29h0.084v2.142H197.7V8.885h-5.458V22.24c0,3.192-2.015,4.284-4.408,4.284-2.267,0-3.359-.966-3.359-3.864V8.885h-5.457V23.248Zm36.191,7.9h5.458V13.5h5.458V8.885H220.5V7.079c0-1.3.462-1.764,1.805-1.764h3.233V0.486h-4.366c-3.569,0-5.836,1.26-5.836,5.25v3.15h-3.568V13.5h3.442V31.143Zm22.8-4.284c-3.065,0-5.038-2.31-5.038-6.846s2.057-6.845,5.038-6.845,5.038,2.394,5.038,6.845S241.072,26.86,238.007,26.86Zm0,4.914c5.836,0,10.412-4.158,10.412-11.759s-4.87-11.759-10.412-11.759S227.6,12.413,227.6,20.014,232.171,31.773,238.007,31.773Zm14.822-.63h5.457V18.922c0-3.57,1.47-5.082,3.821-5.082a5.206,5.206,0,0,1,1.721.336l0.84-5.292a4.962,4.962,0,0,0-2.015-.42,5.171,5.171,0,0,0-4.577,2.772h-0.083V8.885h-5.164V31.143Zm25.695-7.9c0,4.914,2.183,8.525,7.6,8.525A7.162,7.162,0,0,0,291.916,29H292v2.142h5.206V8.885h-5.458V22.24c0,3.192-2.015,4.284-4.408,4.284-2.267,0-3.358-.966-3.358-3.864V8.885h-5.458V23.248Zm22.882,0.546c0.588,3.822,3.4,7.979,10.118,7.979,6.381,0,9.068-3.822,9.068-6.93s-1.217-5.292-6.717-6.8c-5.836-1.638-6.675-1.974-6.675-3.234,0-1.092,1.259-2.058,3.484-2.058a4.57,4.57,0,0,1,4.786,3.444L320,14.806c-1.091-3.78-3.9-6.551-9.362-6.551s-8.4,3.36-8.4,6.8,2.6,5.166,7.473,6.551c4.534,1.3,6,1.554,6,3.108S314,27.2,311.314,27.2c-2.9,0-4.618-1.68-5-4.662Zm23.386,7.349h5.458V8.885h-5.458V31.143Zm0-25.492h5.458V0.486h-5.458V5.651Zm11.336,25.492h5.458V17.536a3.958,3.958,0,0,1,4.282-4.242c2.981,0,3.9,1.722,3.9,4.62V31.143h5.458V16.57c0-5.25-2.981-8.315-7.893-8.315a7.722,7.722,0,0,0-5.877,2.772h-0.084V8.885h-5.248V31.143Zm39-8.861a4.512,4.512,0,0,1-4.786,4.578c-3.065,0-5.458-2.268-5.458-6.846,0-4.62,2.393-6.845,5.458-6.845a4.5,4.5,0,0,1,4.786,4.536v4.578Zm-14.106,13.4c1.385,3.15,4.534,5.543,9.4,5.543,5.71,0,10.16-3.318,10.16-10.079V8.885h-5.206v2.142H375.3a7.035,7.035,0,0,0-5.878-2.772c-5.038,0-9.992,4.158-9.992,11.759s4.618,11.759,10.076,11.759A6.616,6.616,0,0,0,375.048,29h0.084v2.814c0,3.4-2.057,4.662-4.7,4.662s-4.073-1.218-5.332-3.612Zm34.26-14.363c0.882,7.055,5.248,10.457,11.8,10.457,6.676,0,10.79-3.906,10.79-9.029,0-4.284-1.847-6.635-8.481-8.9-6.507-2.226-7.473-2.646-7.473-4.41s1.3-3.066,4.325-3.066c3.316,0,4.7,1.89,5.415,4.158l5.5-1.386c-1.049-5.628-5.751-8.021-10.915-8.021-6.382,0-9.908,4.032-9.908,8.357,0,3.822,2.057,6.509,8.4,8.483,6.592,2.058,7.6,2.856,7.6,5.166s-2.183,3.4-5.248,3.4c-3.9,0-5.164-2.184-5.835-6.509Zm41.019,2.142c-1.091,1.554-2.6,3.486-5.458,3.486-2.98,0-4.744-1.848-4.912-5.291h14.946V20.014c0-7.223-4.408-11.759-10.2-11.759s-10.285,4.536-10.285,11.759,4.408,11.759,10.537,11.759a10.513,10.513,0,0,0,9.195-4.956Zm-10.37-5.879a4.7,4.7,0,0,1,4.744-4.536,4.559,4.559,0,0,1,4.912,4.536h-9.656Zm19.356,13.565h5.29v-14.4c0-1.932,1.218-3.444,3.821-3.444a3.557,3.557,0,0,1,3.862,3.738V31.143h5v-14.4c0-1.932,1.26-3.444,3.821-3.444,2.812,0,3.862,1.722,3.862,3.738V31.143h5V15.9c0-4.494-3.233-7.643-8.649-7.643a6.991,6.991,0,0,0-5.793,2.94h-0.084a6.824,6.824,0,0,0-5.668-2.94,6.448,6.448,0,0,0-5.374,2.772h-0.084V8.885h-5V31.143ZM487.067,17.7a4.5,4.5,0,0,1,4.786-4.536c3.065,0,5.458,2.226,5.458,6.845,0,4.578-2.393,6.846-5.458,6.846a4.512,4.512,0,0,1-4.786-4.578V17.7Zm-5.458,22.888h5.458V29h0.084s1.553,2.772,5.836,2.772c5.163,0,9.782-4.158,9.782-11.759S497.815,8.255,492.9,8.255c-4.367,0-6,2.772-6,2.772h-0.084V8.885h-5.206V40.592Zm25.57-9.449h5.667V0.486h-5.667V31.143Zm11.546,0h5.457V8.885h-5.457V31.143Zm0-25.492h5.457V0.486h-5.457V5.651Zm24.686,16.5c-0.42,2.772-1.8,4.7-4.408,4.7-3.065,0-5.038-2.268-5.038-6.846,0-4.62,2.057-6.845,5.038-6.845,2.561,0,3.82,1.764,4.282,4.074l5.08-.966A9.06,9.06,0,0,0,539,8.255c-5.626,0-10.412,4.158-10.412,11.759s4.534,11.759,10.37,11.759c5.08,0,8.606-2.94,9.614-8.273Zm23.805,1.3c-1.091,1.554-2.6,3.486-5.457,3.486-2.981,0-4.744-1.848-4.912-5.291h14.946V20.014c0-7.223-4.409-11.759-10.2-11.759S551.3,12.791,551.3,20.014s4.408,11.759,10.538,11.759a10.51,10.51,0,0,0,9.194-4.956Zm-10.369-5.879a4.7,4.7,0,0,1,4.744-4.536,4.559,4.559,0,0,1,4.912,4.536h-9.656Zm20.447,3.864h5.668V1.745h-5.668v19.7Zm-0.252,9.7H583.3V25.18h-6.256v5.964Z"/>
</svg>
