<svg xmlns="http://www.w3.org/2000/svg" width="552" height="41" viewBox="0 0 552 41">
  <defs>
    <style>
      .onboarding-title-one {
        fill: #fff;
        fill-rule: evenodd;
      }
    </style>
  </defs>
  <path id="What_is_your_website_about_" data-name="What is your website about?" class="onboarding-title-one" d="M6.194,30.626h5.878l6.088-18.268h0.252l6.046,18.269h5.878l5.71-29.4H30.418L26.64,21.219H26.514L19.755,1.229H16.9l-6.759,19.99H10.015L6.236,1.229H0.485Zm34.051,0H45.7V16.642a3.569,3.569,0,0,1,3.863-3.864c2.771,0,3.946,1.932,3.946,4.242V30.626H58.97V15.8c0-4.914-3.023-8.063-7.767-8.063a6.8,6.8,0,0,0-5.416,2.772H45.7V-0.031H40.245V30.626Zm37.073,0h4.576V16.516c0-6.383-4.282-8.777-9.278-8.777-5.332,0-8.187,2.982-9.152,6.383L68,16.012c0.546-1.722,1.385-3.654,4.7-3.654,2.645,0,3.778,1.092,3.778,2.352s-0.462,1.722-5.752,3.024c-5.332,1.3-7.557,2.94-7.557,6.93,0,3.36,2.267,6.593,8.019,6.593,4.492,0,6.045-2.772,6.045-2.772h0.084v2.142Zm-5.5-9.113c4.324-1.092,4.492-1.638,4.744-2.1h0.084v3.864c0,1.638-1.385,3.276-4.954,3.276-1.931,0-3.275-.588-3.275-2.268C68.418,23.361,68.712,22.269,71.818,21.513Zm16.668,1.176c0,5.292,1.637,7.937,7.851,7.937h2.309v-5.25H96.841c-2.519,0-2.981-.966-2.981-3.192v-9.2H99.4V8.368H93.777V2.909H88.613v5.46H85.044v4.62h3.443v9.7ZM114.1,30.626h5.458V8.368H114.1V30.626Zm0-25.492h5.458V-0.031H114.1V5.134Zm9.657,18.143c0.587,3.822,3.4,7.979,10.118,7.979,6.381,0,9.068-3.822,9.068-6.93s-1.218-5.292-6.717-6.8c-5.836-1.638-6.676-1.974-6.676-3.234,0-1.092,1.26-2.058,3.485-2.058a4.57,4.57,0,0,1,4.786,3.444l4.534-1.386c-1.091-3.78-3.9-6.551-9.362-6.551s-8.4,3.36-8.4,6.8,2.6,5.166,7.473,6.551c4.534,1.3,6,1.554,6,3.108s-1.721,2.478-4.408,2.478c-2.9,0-4.618-1.68-5-4.662Zm35.6,16.8h5.416l12.8-31.708h-5.541l-5.752,15.077H166.2L160.45,8.368h-5.541l8.9,21.166Zm29.893-13.733c-3.065,0-5.038-2.31-5.038-6.845s2.057-6.845,5.038-6.845,5.038,2.394,5.038,6.845S192.317,26.343,189.252,26.343Zm0,4.914c5.836,0,10.412-4.158,10.412-11.759s-4.87-11.759-10.412-11.759S178.84,11.9,178.84,19.5,183.417,31.256,189.252,31.256Zm14.612-8.525c0,4.914,2.183,8.525,7.6,8.525a7.16,7.16,0,0,0,5.793-2.772h0.084v2.142h5.206V8.368h-5.457V21.723c0,3.192-2.016,4.284-4.409,4.284-2.267,0-3.358-.966-3.358-3.864V8.368h-5.458V22.731Zm24.561,7.9h5.458V18.405c0-3.57,1.469-5.082,3.821-5.082a5.211,5.211,0,0,1,1.721.336l0.839-5.292a4.955,4.955,0,0,0-2.015-.42,5.171,5.171,0,0,0-4.576,2.772h-0.084V8.368h-5.164V30.626Zm29.138,0h5.29l5.5-16h0.084l5.08,16h5.373l5.332-22.258h-5.248l-3.358,14.825h-0.084L270.956,8.368H266l-4.954,14.867h-0.126L257.983,8.368h-5.332Zm44.883-7.685c-1.092,1.554-2.6,3.486-5.458,3.486-2.981,0-4.744-1.848-4.912-5.291h14.946V19.5c0-7.223-4.408-11.759-10.2-11.759S286.534,12.274,286.534,19.5s4.408,11.759,10.538,11.759a10.51,10.51,0,0,0,9.194-4.956Zm-10.37-5.879a4.7,4.7,0,0,1,4.744-4.536,4.559,4.559,0,0,1,4.912,4.536h-9.656ZM316.89,17.44a4.581,4.581,0,0,1,4.786-4.788c3.106,0,5.038,2.226,5.038,6.845,0,4.578-1.932,6.845-5.038,6.845a4.614,4.614,0,0,1-4.786-4.83V17.44Zm-5.458,13.187h5.122V28.485h0.084a7.1,7.1,0,0,0,5.877,2.772c5.878,0,9.656-4.62,9.656-11.759s-4.156-11.759-9.53-11.759a6.839,6.839,0,0,0-5.667,2.772H316.89V-0.031h-5.458V30.626Zm23.47-7.349c0.588,3.822,3.4,7.979,10.118,7.979,6.382,0,9.069-3.822,9.069-6.93s-1.218-5.292-6.718-6.8c-5.835-1.638-6.675-1.974-6.675-3.234,0-1.092,1.259-2.058,3.485-2.058a4.571,4.571,0,0,1,4.786,3.444L353.5,14.29c-1.092-3.78-3.9-6.551-9.362-6.551s-8.4,3.36-8.4,6.8,2.6,5.166,7.473,6.551c4.534,1.3,6,1.554,6,3.108s-1.722,2.478-4.409,2.478c-2.9,0-4.618-1.68-5-4.662Zm23.386,7.349h5.458V8.368h-5.458V30.626Zm0-25.492h5.458V-0.031h-5.458V5.134Zm12.47,17.555c0,5.292,1.637,7.937,7.851,7.937h2.309v-5.25h-1.806c-2.519,0-2.98-.966-2.98-3.192v-9.2h5.541V8.368h-5.625V2.909h-5.164v5.46h-3.569v4.62h3.443v9.7Zm29.557,0.252c-1.092,1.554-2.6,3.486-5.458,3.486-2.981,0-4.744-1.848-4.912-5.291h14.946V19.5c0-7.223-4.408-11.759-10.2-11.759S384.4,12.274,384.4,19.5s4.409,11.759,10.538,11.759a10.51,10.51,0,0,0,9.194-4.956Zm-10.37-5.879a4.7,4.7,0,0,1,4.744-4.536,4.559,4.559,0,0,1,4.912,4.536h-9.656Zm42.532,13.565h4.576V16.516c0-6.383-4.283-8.777-9.279-8.777-5.331,0-8.186,2.982-9.152,6.383l4.534,1.89c0.546-1.722,1.386-3.654,4.7-3.654,2.645,0,3.779,1.092,3.779,2.352s-0.462,1.722-5.752,3.024c-5.332,1.3-7.557,2.94-7.557,6.93,0,3.36,2.267,6.593,8.019,6.593,4.492,0,6.046-2.772,6.046-2.772h0.084v2.142Zm-5.5-9.113c4.324-1.092,4.492-1.638,4.744-2.1h0.084v3.864c0,1.638-1.386,3.276-4.954,3.276-1.931,0-3.275-.588-3.275-2.268C423.576,23.361,423.87,22.269,426.977,21.513Zm20.992-4.074a4.582,4.582,0,0,1,4.787-4.788c3.106,0,5.037,2.226,5.037,6.845,0,4.578-1.931,6.845-5.037,6.845a4.615,4.615,0,0,1-4.787-4.83V17.44Zm-5.457,13.187h5.122V28.485h0.084a7.1,7.1,0,0,0,5.877,2.772c5.878,0,9.656-4.62,9.656-11.759S459.1,7.738,453.721,7.738a6.842,6.842,0,0,0-5.668,2.772h-0.084V-0.031h-5.457V30.626ZM476.6,26.343c-3.065,0-5.038-2.31-5.038-6.845s2.057-6.845,5.038-6.845,5.038,2.394,5.038,6.845S479.669,26.343,476.6,26.343Zm0,4.914c5.835,0,10.412-4.158,10.412-11.759S482.146,7.738,476.6,7.738,466.192,11.9,466.192,19.5,470.768,31.256,476.6,31.256Zm14.612-8.525c0,4.914,2.183,8.525,7.6,8.525a7.164,7.164,0,0,0,5.794-2.772h0.084v2.142H509.9V8.368H504.44V21.723c0,3.192-2.015,4.284-4.408,4.284-2.267,0-3.359-.966-3.359-3.864V8.368h-5.457V22.731Zm25.694-.042c0,5.292,1.638,7.937,7.851,7.937h2.309v-5.25h-1.805c-2.519,0-2.981-.966-2.981-3.192v-9.2h5.542V8.368H522.2V2.909h-5.164v5.46h-3.568v4.62h3.442v9.7Zm20.657-1.6h5.08V20.085c0-2.142,1.847-3.024,3.821-4.2,2.141-1.3,4.408-2.94,4.408-7.055,0-4.662-4.2-8.231-10.034-8.231-7.347,0-10.748,4.41-10.916,10.373l5.542,0.462c0.168-2.9,1.176-5.586,5.206-5.586,3.149,0,4.534,1.68,4.534,3.4,0,2.394-1.679,3.318-3.443,4.41-2.015,1.218-4.2,2.646-4.2,6.131v1.3Zm-0.336,9.533h6.256V24.663h-6.256v5.964Z"/>
</svg>
