<svg xmlns="http://www.w3.org/2000/svg" width="474" height="91" viewBox="0 0 474 91">
  <defs>
    <style>
      .onboarding-title-three {
        fill: #fff;
        fill-rule: evenodd;
      }
    </style>
  </defs>
  <path id="Almost_done_Let_s_create_your_first_project." data-name="Almost done! Let’s create your first project." class="onboarding-title-three" d="M21.629,30.626h5.836l-10.58-29.4H12.057L1.435,30.626H7.061L8.74,25.8H19.949Zm-7.305-21h0.084l3.946,11.465H10.335Zm16.291,21h5.668V-0.031H30.615V30.626Zm11.546,0h5.29v-14.4c0-1.932,1.218-3.444,3.82-3.444a3.558,3.558,0,0,1,3.862,3.738V30.626h5v-14.4c0-1.932,1.26-3.444,3.82-3.444,2.813,0,3.862,1.722,3.862,3.738V30.626h5V15.382c0-4.494-3.233-7.643-8.649-7.643a6.993,6.993,0,0,0-5.794,2.94H58.282a6.822,6.822,0,0,0-5.668-2.94,6.447,6.447,0,0,0-5.374,2.772H47.157V8.368h-5V30.626Zm45.26-4.284c-3.065,0-5.038-2.31-5.038-6.845s2.057-6.845,5.038-6.845,5.038,2.394,5.038,6.845S90.486,26.343,87.421,26.343Zm0,4.914c5.836,0,10.412-4.158,10.412-11.759S92.963,7.738,87.421,7.738,77.009,11.9,77.009,19.5,81.585,31.256,87.421,31.256Zm13.142-7.979c0.588,3.822,3.4,7.979,10.118,7.979,6.382,0,9.068-3.822,9.068-6.93s-1.217-5.292-6.717-6.8c-5.835-1.638-6.675-1.974-6.675-3.234,0-1.092,1.259-2.058,3.484-2.058a4.572,4.572,0,0,1,4.787,3.444l4.534-1.386c-1.092-3.78-3.905-6.551-9.363-6.551s-8.4,3.36-8.4,6.8,2.6,5.166,7.473,6.551c4.534,1.3,6,1.554,6,3.108s-1.721,2.478-4.408,2.478c-2.9,0-4.618-1.68-5-4.662Zm24.52-.588c0,5.292,1.637,7.937,7.851,7.937h2.309v-5.25h-1.805c-2.519,0-2.981-.966-2.981-3.192v-9.2H136V8.368h-5.626V2.909h-5.164v5.46H121.64v4.62h3.443v9.7Zm39.424-1.176a4.614,4.614,0,0,1-4.786,4.83c-3.107,0-5.038-2.268-5.038-6.845,0-4.62,1.931-6.845,5.038-6.845a4.581,4.581,0,0,1,4.786,4.788v4.074Zm0.336,9.113h5.122V-0.031h-5.458V10.51h-0.084A6.545,6.545,0,0,0,158.8,7.738c-4.786,0-9.572,4.158-9.572,11.759,0,7.139,3.779,11.759,9.656,11.759a7.1,7.1,0,0,0,5.878-2.772h0.084v2.142Zm19.944-4.284c-3.065,0-5.038-2.31-5.038-6.845s2.057-6.845,5.038-6.845,5.038,2.394,5.038,6.845S187.851,26.343,184.787,26.343Zm0,4.914c5.835,0,10.411-4.158,10.411-11.759s-4.87-11.759-10.411-11.759S174.375,11.9,174.375,19.5,178.951,31.256,184.787,31.256Zm14.821-.63h5.458V17.02a3.958,3.958,0,0,1,4.282-4.242c2.981,0,3.9,1.722,3.9,4.62V30.626h5.457V16.054c0-5.25-2.98-8.315-7.892-8.315a7.726,7.726,0,0,0-5.878,2.772h-0.084V8.368h-5.248V30.626Zm39.214-7.685c-1.091,1.554-2.6,3.486-5.458,3.486-2.98,0-4.744-1.848-4.912-5.291H243.4V19.5c0-7.223-4.408-11.759-10.2-11.759S222.911,12.274,222.911,19.5s4.408,11.759,10.537,11.759a10.513,10.513,0,0,0,9.195-4.956Zm-10.37-5.879a4.7,4.7,0,0,1,4.744-4.536,4.559,4.559,0,0,1,4.912,4.536h-9.656ZM248.9,20.925h5.668V1.229H248.9v19.7Zm-0.252,9.7H254.9V24.663h-6.255v5.964Zm23.89,0h17.8v-5.25H278.206V1.229h-5.668v29.4Zm35.813-7.685c-1.091,1.554-2.6,3.486-5.458,3.486-2.98,0-4.744-1.848-4.912-5.291h14.946V19.5c0-7.223-4.408-11.759-10.2-11.759S292.44,12.274,292.44,19.5s4.408,11.759,10.537,11.759a10.513,10.513,0,0,0,9.2-4.956Zm-10.37-5.879a4.7,4.7,0,0,1,4.744-4.536,4.559,4.559,0,0,1,4.912,4.536h-9.656Zm20.49,5.628c0,5.292,1.637,7.937,7.851,7.937h2.309v-5.25h-1.806c-2.519,0-2.98-.966-2.98-3.192v-9.2h5.541V8.368h-5.625V2.909H318.6v5.46h-3.569v4.62h3.443v9.7Zm15.535-9.869c4.534-.336,6.255-2.9,6.255-6.3V1.229h-6.255V7.192h2.057c0,1.68-.084,2.436-2.057,2.772V12.82Zm9.614,10.457c0.588,3.822,3.4,7.979,10.118,7.979,6.382,0,9.068-3.822,9.068-6.93s-1.217-5.292-6.717-6.8c-5.835-1.638-6.675-1.974-6.675-3.234,0-1.092,1.259-2.058,3.484-2.058a4.572,4.572,0,0,1,4.787,3.444l4.534-1.386c-1.092-3.78-3.9-6.551-9.363-6.551s-8.4,3.36-8.4,6.8,2.6,5.166,7.473,6.551c4.534,1.3,6,1.554,6,3.108s-1.721,2.478-4.408,2.478c-2.9,0-4.618-1.68-5-4.662ZM17.514,72.639c-0.42,2.772-1.805,4.7-4.408,4.7-3.065,0-5.038-2.268-5.038-6.845,0-4.62,2.057-6.845,5.038-6.845,2.561,0,3.821,1.764,4.282,4.074l5.08-.966a9.06,9.06,0,0,0-9.362-8.021C7.481,58.738,2.694,62.9,2.694,70.5s4.534,11.759,10.37,11.759c5.08,0,8.607-2.94,9.614-8.273Zm9.363,8.987h5.458V69.405c0-3.57,1.469-5.082,3.821-5.082a5.208,5.208,0,0,1,1.721.336l0.84-5.292a4.959,4.959,0,0,0-2.015-.42,5.171,5.171,0,0,0-4.576,2.772H32.042V59.368H26.878V81.626Zm29.851-7.685c-1.092,1.554-2.6,3.486-5.458,3.486-2.981,0-4.744-1.848-4.912-5.291H61.3V70.5c0-7.223-4.408-11.759-10.2-11.759S40.817,63.274,40.817,70.5s4.408,11.759,10.538,11.759A10.51,10.51,0,0,0,60.549,77.3Zm-10.37-5.88A4.7,4.7,0,0,1,51.1,63.526a4.559,4.559,0,0,1,4.912,4.536H46.359ZM78.394,81.626H82.97V67.516c0-6.384-4.282-8.777-9.278-8.777-5.332,0-8.187,2.982-9.152,6.384l4.534,1.89c0.546-1.722,1.385-3.654,4.7-3.654,2.645,0,3.778,1.092,3.778,2.352s-0.462,1.722-5.752,3.024c-5.332,1.3-7.557,2.94-7.557,6.929,0,3.36,2.267,6.594,8.019,6.594,4.492,0,6.046-2.772,6.046-2.772h0.084v2.142Zm-5.5-9.113c4.324-1.092,4.492-1.638,4.744-2.1h0.084v3.864c0,1.638-1.385,3.276-4.954,3.276-1.931,0-3.275-.588-3.275-2.268C69.493,74.361,69.787,73.269,72.894,72.513Zm16.668,1.176c0,5.292,1.637,7.937,7.851,7.937h2.309v-5.25H97.917c-2.519,0-2.981-.966-2.981-3.192v-9.2h5.542v-4.62H94.852v-5.46H89.688v5.46H86.12v4.62h3.443v9.7Zm29.557,0.252c-1.091,1.554-2.6,3.486-5.458,3.486-2.98,0-4.744-1.848-4.912-5.291H123.7V70.5c0-7.223-4.408-11.759-10.2-11.759S103.208,63.274,103.208,70.5s4.408,11.759,10.537,11.759A10.511,10.511,0,0,0,122.94,77.3Zm-10.37-5.88a4.7,4.7,0,0,1,4.745-4.536,4.56,4.56,0,0,1,4.912,4.536h-9.657Zm31.574,23.014h5.416l12.805-31.707H153L147.25,74.445h-0.083l-5.752-15.077h-5.542l8.9,21.166Zm29.894-13.733c-3.065,0-5.038-2.31-5.038-6.845s2.057-6.845,5.038-6.845,5.038,2.394,5.038,6.845S173.281,77.343,170.217,77.343Zm0,4.914c5.835,0,10.411-4.158,10.411-11.759s-4.87-11.759-10.411-11.759S159.805,62.9,159.805,70.5,164.381,82.256,170.217,82.256Zm14.611-8.525c0,4.914,2.184,8.525,7.6,8.525a7.164,7.164,0,0,0,5.794-2.772h0.084v2.142h5.206V59.368h-5.458V72.723c0,3.192-2.015,4.284-4.408,4.284-2.267,0-3.359-.966-3.359-3.864V59.368h-5.458V73.731Zm24.562,7.9h5.458V69.405c0-3.57,1.469-5.082,3.82-5.082a5.2,5.2,0,0,1,1.721.336l0.84-5.292a4.958,4.958,0,0,0-2.015-.42,5.17,5.17,0,0,0-4.576,2.772h-0.084V59.368H209.39V81.626Zm27.08,0h5.458V63.988h7.977V81.626h5.458V59.368h-13.6V57.562c0-1.3.462-1.764,1.806-1.764h2.393v-4.83h-3.527c-3.569,0-5.836,1.26-5.836,5.25v3.15h-3.61v4.62h3.484V81.626Zm13.435-25.492h5.458V50.969h-5.458v5.166Zm11.337,25.492H266.7V69.405c0-3.57,1.469-5.082,3.821-5.082a5.211,5.211,0,0,1,1.721.336l0.839-5.292a4.955,4.955,0,0,0-2.015-.42,5.171,5.171,0,0,0-4.576,2.772h-0.084V59.368h-5.164V81.626Zm13.73-7.349c0.587,3.822,3.4,7.979,10.117,7.979,6.382,0,9.069-3.822,9.069-6.93s-1.218-5.292-6.718-6.8c-5.835-1.638-6.675-1.974-6.675-3.234,0-1.092,1.26-2.058,3.485-2.058a4.57,4.57,0,0,1,4.786,3.444l4.534-1.386c-1.092-3.78-3.9-6.551-9.362-6.551s-8.4,3.36-8.4,6.8,2.6,5.166,7.473,6.551c4.534,1.3,6,1.554,6,3.108s-1.722,2.478-4.408,2.478c-2.9,0-4.619-1.68-5-4.662Zm24.519-.588c0,5.292,1.638,7.937,7.851,7.937h2.309v-5.25h-1.805c-2.519,0-2.981-.966-2.981-3.192v-9.2h5.542v-4.62h-5.626v-5.46h-5.164v5.46h-3.568v4.62h3.442v9.7Zm31.07-5.5a4.5,4.5,0,0,1,4.786-4.536c3.064,0,5.457,2.226,5.457,6.845,0,4.578-2.393,6.845-5.457,6.845a4.512,4.512,0,0,1-4.786-4.578V68.188ZM325.1,91.076h5.458V79.485h0.083s1.554,2.772,5.836,2.772c5.164,0,9.782-4.158,9.782-11.759s-4.954-11.759-9.866-11.759c-4.366,0-6,2.772-6,2.772h-0.084V59.368H325.1V91.076Zm25.569-9.449h5.458V69.405c0-3.57,1.469-5.082,3.82-5.082a5.211,5.211,0,0,1,1.722.336l0.839-5.292a4.955,4.955,0,0,0-2.015-.42,5.171,5.171,0,0,0-4.576,2.772h-0.084V59.368h-5.164V81.626Zm23.512-4.284c-3.065,0-5.038-2.31-5.038-6.845s2.057-6.845,5.038-6.845,5.038,2.394,5.038,6.845S377.249,77.343,374.184,77.343Zm0,4.914c5.835,0,10.412-4.158,10.412-11.759s-4.87-11.759-10.412-11.759S363.772,62.9,363.772,70.5,368.348,82.256,374.184,82.256Zm12.3,7.559h2.31c4.114,0,5.751-2.226,5.751-6.006V59.368h-5.458V82.3c0,1.092-.419,1.848-1.595,1.848h-1.008v5.67Zm2.6-33.681h5.458V50.969h-5.458v5.166Zm25.778,17.807c-1.091,1.554-2.6,3.486-5.457,3.486-2.981,0-4.745-1.848-4.912-5.291h14.946V70.5c0-7.223-4.409-11.759-10.2-11.759S398.956,63.274,398.956,70.5s4.408,11.759,10.538,11.759a10.51,10.51,0,0,0,9.194-4.956ZM404.5,68.062a4.7,4.7,0,0,1,4.744-4.536,4.56,4.56,0,0,1,4.912,4.536H404.5ZM437.2,72.639c-0.42,2.772-1.805,4.7-4.408,4.7-3.065,0-5.038-2.268-5.038-6.845,0-4.62,2.057-6.845,5.038-6.845,2.561,0,3.82,1.764,4.282,4.074l5.08-.966a9.06,9.06,0,0,0-9.362-8.021c-5.626,0-10.412,4.158-10.412,11.759s4.534,11.759,10.37,11.759c5.08,0,8.606-2.94,9.614-8.273Zm10.5,1.05c0,5.292,1.637,7.937,7.851,7.937h2.309v-5.25h-1.805c-2.519,0-2.981-.966-2.981-3.192v-9.2h5.542v-4.62h-5.626v-5.46h-5.164v5.46h-3.569v4.62H447.7v9.7Zm15.535,7.937h6.255V75.663h-6.255v5.964Z"/>
</svg>
