<svg xmlns="http://www.w3.org/2000/svg" width="552" height="41" viewBox="0 0 552 41">
  <defs>
    <style>
      .onboarding-title-two {
        fill: #fff;
        fill-rule: evenodd;
      }
    </style>
  </defs>
  <path id="Let_s_create_your_first_page." data-name="Let’s create your first page." class="onboarding-title-two" d="M1.971,31.143h17.8v-5.25H7.639V1.745H1.971v29.4Zm35.813-7.685c-1.092,1.554-2.6,3.486-5.458,3.486-2.981,0-4.744-1.848-4.912-5.291H42.36V20.014c0-7.223-4.408-11.759-10.2-11.759S21.873,12.791,21.873,20.014,26.281,31.773,32.41,31.773A10.51,10.51,0,0,0,41.6,26.818Zm-10.37-5.879a4.7,4.7,0,0,1,4.744-4.536,4.559,4.559,0,0,1,4.912,4.536H27.415ZM47.9,23.206c0,5.292,1.637,7.937,7.851,7.937h2.309v-5.25H56.259c-2.519,0-2.981-.966-2.981-3.192V13.5H58.82V8.885H53.194V3.425H48.03v5.46H44.461V13.5H47.9v9.7Zm15.535-9.869c4.534-.336,6.255-2.9,6.255-6.3V1.745H63.439V7.709H65.5c0,1.68-.084,2.436-2.057,2.772v2.856Zm9.615,10.457c0.588,3.822,3.4,7.979,10.118,7.979,6.381,0,9.068-3.822,9.068-6.93s-1.218-5.292-6.717-6.8c-5.836-1.638-6.675-1.974-6.675-3.234,0-1.092,1.26-2.058,3.485-2.058a4.571,4.571,0,0,1,4.786,3.444l4.534-1.386c-1.092-3.78-3.9-6.551-9.362-6.551s-8.4,3.36-8.4,6.8,2.6,5.166,7.473,6.551c4.534,1.3,6,1.554,6,3.108S85.648,27.2,82.961,27.2c-2.9,0-4.618-1.68-5-4.662Zm47.234-1.638c-0.42,2.772-1.806,4.7-4.408,4.7-3.065,0-5.038-2.268-5.038-6.846,0-4.62,2.057-6.845,5.038-6.845,2.56,0,3.82,1.764,4.282,4.074l5.08-.966a9.061,9.061,0,0,0-9.362-8.021c-5.626,0-10.412,4.158-10.412,11.759S110,31.773,115.837,31.773c5.079,0,8.606-2.94,9.614-8.273Zm9.363,8.987h5.458V18.922c0-3.57,1.469-5.082,3.82-5.082a5.211,5.211,0,0,1,1.722.336l0.839-5.292a4.955,4.955,0,0,0-2.015-.42,5.171,5.171,0,0,0-4.576,2.772h-0.084V8.885H129.65V31.143ZM159.5,23.458c-1.092,1.554-2.6,3.486-5.458,3.486-2.981,0-4.744-1.848-4.912-5.291h14.946V20.014c0-7.223-4.408-11.759-10.2-11.759s-10.286,4.536-10.286,11.759S148,31.773,154.127,31.773a10.51,10.51,0,0,0,9.194-4.956Zm-10.37-5.879a4.7,4.7,0,0,1,4.744-4.536,4.559,4.559,0,0,1,4.912,4.536h-9.656Zm32.035,13.565h4.576V17.032c0-6.383-4.282-8.777-9.278-8.777-5.332,0-8.187,2.982-9.153,6.383l4.535,1.89c0.545-1.722,1.385-3.654,4.7-3.654,2.645,0,3.778,1.092,3.778,2.352s-0.462,1.722-5.751,3.024c-5.332,1.3-7.557,2.94-7.557,6.93,0,3.36,2.267,6.593,8.018,6.593,4.493,0,6.046-2.772,6.046-2.772h0.084v2.142Zm-5.5-9.113c4.324-1.092,4.492-1.638,4.744-2.1h0.084v3.864c0,1.638-1.385,3.276-4.954,3.276-1.931,0-3.275-.588-3.275-2.268C172.265,23.878,172.559,22.786,175.666,22.03Zm16.669,1.176c0,5.292,1.637,7.937,7.85,7.937h2.309v-5.25h-1.805c-2.519,0-2.981-.966-2.981-3.192V13.5h5.542V8.885h-5.626V3.425H192.46v5.46h-3.568V13.5h3.443v9.7Zm29.557,0.252c-1.092,1.554-2.6,3.486-5.458,3.486-2.981,0-4.744-1.848-4.912-5.291h14.946V20.014c0-7.223-4.409-11.759-10.2-11.759S205.98,12.791,205.98,20.014s4.408,11.759,10.538,11.759a10.51,10.51,0,0,0,9.194-4.956Zm-10.37-5.879a4.7,4.7,0,0,1,4.744-4.536,4.559,4.559,0,0,1,4.912,4.536h-9.656ZM243.1,40.592h5.415l12.8-31.708h-5.542l-5.751,15.077h-0.084L244.187,8.885h-5.542l8.9,21.166ZM272.989,26.86c-3.065,0-5.038-2.31-5.038-6.846s2.057-6.845,5.038-6.845,5.038,2.394,5.038,6.845S276.054,26.86,272.989,26.86Zm0,4.914c5.836,0,10.412-4.158,10.412-11.759s-4.87-11.759-10.412-11.759-10.412,4.158-10.412,11.759S267.153,31.773,272.989,31.773ZM287.6,23.248c0,4.914,2.183,8.525,7.6,8.525A7.162,7.162,0,0,0,300.993,29h0.084v2.142h5.206V8.885h-5.458V22.24c0,3.192-2.015,4.284-4.408,4.284-2.267,0-3.358-.966-3.358-3.864V8.885H287.6V23.248Zm24.561,7.9h5.458V18.922c0-3.57,1.469-5.082,3.82-5.082a5.211,5.211,0,0,1,1.722.336L324,8.885a4.955,4.955,0,0,0-2.015-.42,5.171,5.171,0,0,0-4.576,2.772h-0.084V8.885h-5.164V31.143Zm27.081,0H344.7V13.5h7.976V31.143h5.458V8.885h-13.6V7.079c0-1.3.461-1.764,1.805-1.764h2.393V0.486H345.2c-3.568,0-5.835,1.26-5.835,5.25v3.15h-3.611V13.5h3.485V31.143ZM352.677,5.651h5.458V0.486h-5.458V5.651Zm11.338,25.492h5.457V18.922c0-3.57,1.47-5.082,3.821-5.082a5.206,5.206,0,0,1,1.721.336l0.84-5.292a4.962,4.962,0,0,0-2.015-.42,5.17,5.17,0,0,0-4.576,2.772h-0.084V8.885h-5.164V31.143Zm13.729-7.349c0.588,3.822,3.4,7.979,10.118,7.979,6.381,0,9.068-3.822,9.068-6.93s-1.217-5.292-6.717-6.8c-5.836-1.638-6.675-1.974-6.675-3.234,0-1.092,1.259-2.058,3.484-2.058a4.57,4.57,0,0,1,4.786,3.444l4.534-1.386c-1.091-3.78-3.9-6.551-9.362-6.551s-8.4,3.36-8.4,6.8,2.6,5.166,7.473,6.551c4.534,1.3,6,1.554,6,3.108s-1.721,2.478-4.408,2.478c-2.9,0-4.618-1.68-5-4.662Zm24.52-.588c0,5.292,1.637,7.937,7.85,7.937h2.309v-5.25h-1.805c-2.519,0-2.981-.966-2.981-3.192V13.5h5.542V8.885h-5.626V3.425H402.39v5.46h-3.569V13.5h3.443v9.7Zm31.069-5.5a4.5,4.5,0,0,1,4.786-4.536c3.065,0,5.458,2.226,5.458,6.845,0,4.578-2.393,6.846-5.458,6.846a4.512,4.512,0,0,1-4.786-4.578V17.7Zm-5.458,22.888h5.458V29h0.084s1.553,2.772,5.835,2.772c5.164,0,9.783-4.158,9.783-11.759s-4.954-11.759-9.866-11.759c-4.367,0-6,2.772-6,2.772h-0.084V8.885h-5.206V40.592Zm38.248-9.449H470.7V17.032c0-6.383-4.283-8.777-9.279-8.777-5.332,0-8.186,2.982-9.152,6.383l4.534,1.89c0.546-1.722,1.386-3.654,4.7-3.654,2.645,0,3.779,1.092,3.779,2.352s-0.462,1.722-5.752,3.024c-5.332,1.3-7.557,2.94-7.557,6.93,0,3.36,2.267,6.593,8.019,6.593,4.492,0,6.045-2.772,6.045-2.772h0.084v2.142Zm-5.5-9.113c4.324-1.092,4.492-1.638,4.744-2.1h0.084v3.864c0,1.638-1.386,3.276-4.954,3.276-1.932,0-3.275-.588-3.275-2.268C457.223,23.878,457.517,22.786,460.624,22.03Zm29.767,0.252a4.513,4.513,0,0,1-4.786,4.578c-3.065,0-5.458-2.268-5.458-6.846,0-4.62,2.393-6.845,5.458-6.845a4.5,4.5,0,0,1,4.786,4.536v4.578Zm-14.107,13.4c1.386,3.15,4.535,5.543,9.405,5.543,5.709,0,10.16-3.318,10.16-10.079V8.885h-5.206v2.142h-0.084a7.035,7.035,0,0,0-5.878-2.772c-5.038,0-9.992,4.158-9.992,11.759s4.618,11.759,10.076,11.759A6.616,6.616,0,0,0,490.307,29h0.084v2.814c0,3.4-2.057,4.662-4.7,4.662s-4.073-1.218-5.332-3.612ZM515.96,23.458c-1.092,1.554-2.6,3.486-5.458,3.486-2.981,0-4.744-1.848-4.912-5.291h14.946V20.014c0-7.223-4.408-11.759-10.2-11.759s-10.286,4.536-10.286,11.759,4.409,11.759,10.538,11.759a10.51,10.51,0,0,0,9.194-4.956Zm-10.37-5.879a4.7,4.7,0,0,1,4.744-4.536,4.559,4.559,0,0,1,4.912,4.536H505.59Zm18.937,13.565h6.255V25.18h-6.255v5.964Z"/>
</svg>
