<svg id="Gruppe_1" data-name="Gruppe 1" xmlns="http://www.w3.org/2000/svg" width="990" height="759" viewBox="0 0 990 759">
  <defs>
    <style>
      .onboarding-welcome-1, .onboarding-welcome-2 {
        fill: #fff;
        fill-rule: evenodd;
      }

      .onboarding-welcome-2 {
        opacity: 0.6;
      }
    </style>
  </defs>
  <path id="badge" class="onboarding-welcome-1" d="M431.907,41.474l2.549-4.857a3.407,3.407,0,0,1,4.829-1.754,3.208,3.208,0,0,1,1.61,2.563h0a3.123,3.123,0,0,1,3.622-.4c2.012,1.079,3.085,2.833,1.341,6.206l-2.28,4.452Zm7.11-2.024c0.536-1.079.4-2.024-.537-2.563a1.634,1.634,0,0,0-2.414.944L434.724,40.4l2.951,1.484Zm4.963,3.1c0.805-1.484,1.342-2.7-.4-3.643-1.476-.809-2.146.135-3.086,1.754l-1.073,2.159,3.488,1.754Zm1.073-21.047,1.61-1.484,5.9,6.476a2.389,2.389,0,0,0,3.757.135,2.435,2.435,0,0,0,.268-3.777l-5.9-6.476L452.3,14.9l6.037,6.611c1.878,2.159,1.609,4.722-.537,6.746s-4.7,2.024-6.707-.135ZM464.5,7.341l2.012-.944,5.634,11.872-2.012.944ZM480.2,1.675l2.146-.4,1.878,11.063,5.5-.944,0.4,2.024-7.646,1.349Zm21.195-1.484,4.293,0.675c2.817,0.4,5.365,2.833,4.56,7.42-0.8,4.992-3.89,6.071-6.707,5.666l-4.158-.675Zm2.415,11.6c2.012,0.27,3.622-.27,4.158-3.912,0.537-3.238-.671-4.722-2.683-4.992l-2.012-.27-1.476,8.9ZM524.2,6.4l2.012,0.944-5.634,12.007-2.013-.944Zm14.487,8.9,1.744,1.619-2.549,10.388h0l6.305-6.881,1.61,1.484-8.988,9.714-1.61-1.484,2.415-10.523h0L531.308,26.5,529.7,25.015Zm10.195,21.182c3.89-2.024,7.244-.54,8.451,2.159a4.859,4.859,0,0,1-1.744,6.476l-1.341-1.889c1.207-.944,2.012-2.159,1.207-3.778s-2.817-2.294-5.634-.944c-3.219,1.619-3.756,3.643-2.951,5.262a2.671,2.671,0,0,0,4.024,1.214l-1.207-2.428,1.744-.809,2.146,4.317-1.475.674c-3.086,1.484-5.769.54-7.11-2.159C543.65,42.014,544.32,38.776,548.881,36.483ZM564.71,73.989l-0.4,2.293-9.39.135h0l8.585,4.722-0.268,1.214L553.576,83.7h0l8.854,3.373-0.4,2.159-12.475-4.857,0.4-2.294,9.391-1.349h0l-8.317-4.452,0.4-2.293h13.28Zm-8.719,28.331-1.073,1.889-11.537-6.341,1.073-1.889Zm-12.744,14.3,2.817-2.833,1.476,1.484-7.11,7.151-1.475-1.484,2.817-2.7-7.781-7.96,1.61-1.618Zm-14.353,13.627-2.013.944L524.6,126.2l-4.427,2.159,2.281,4.857-2.012.944-5.634-12.007,2.012-.945,2.414,5.262,4.427-2.158-2.549-5.262,2.012-.945Zm-40.244,8.364-5.231-.809c-2.549-.405-4.159-2.294-3.756-4.857s2.28-3.778,5.1-3.373l2.951,0.54,0.805-4.857,2.146,0.405Zm-4.158-7.015a2.147,2.147,0,0,0-2.549,1.754,2.015,2.015,0,0,0,1.878,2.428l2.951,0.405L487.443,132Zm-18.378.944-4.561-2.563c-2.28-1.214-3.219-3.508-2.012-5.8a3.866,3.866,0,0,1,4.427-2.024v-5.936l2.146,1.214v5.8l2.012,1.08,2.415-4.453,2.012,1.08Zm-1.341-7.96c-1.208-.674-2.415-0.674-3.086.675s-0.134,2.293,1.073,2.968l2.549,1.349,2.012-3.643Zm-17.707-5.531-1.476-1.484,9.39-9.309,1.61,1.619Zm-10.732-13.087-2.012-3.777c-1.342-2.564-.939-6.071,3.085-8.1,4.427-2.428,7.244-.54,8.585,2.024L448,99.892Zm8.049-8.9c-0.939-1.754-2.415-2.7-5.635-.944-2.817,1.484-3.353,3.373-2.414,5.126L437.273,103l8.049-4.182Zm-16.9-13.626-1.207-8.095,2.012-.27L429.224,81l3.354-.54-0.8-5.4,2.012-.27,0.8,5.4,3.622-.54-0.939-5.936,2.012-.27,1.207,8.095Zm84.542-25.32c5.693,0.545,5.6-3.819,5.6-3.819S515,56.2,512.835,55.658a12.629,12.629,0,0,1-2.169-.727c6.417-.363,4.519-4.454,4.519-4.454-1.627,2.726-5.6,1.363-5.6,1.363,3.073-1.271,1.266-3.455,1.266-3.455-0.542,2.637-4.61,1.547-7.051,2.546s-0.361,3-.361,3c-0.362-1,3.253-.909,3.615,3.909s-3.434,5.545-3.434,5.545c-0.681-1.369-3.066-.194-3.827.227a1.781,1.781,0,0,1-1.712-1.363,0.571,0.571,0,0,0,.763-0.084,2.131,2.131,0,0,1-.918-2.14,0.78,0.78,0,0,0,.863.818c0.968,0.122.564-.657,0.564-0.657s-0.14.381-.429,0.23c-1.115-.579-0.609-3.042-0.609-3.042s0.348,1.594,1.532,1.522c0.9-.054.565-0.658,0.565-0.658-0.645.759-1.342-.577-1.468-1.346a14.717,14.717,0,0,0-.538-2c1.7,1.823,2.03.277,1.975,0.192-0.674.486-1.344-.191-1.6-0.874a2.762,2.762,0,0,0-.853-1.14c-0.877-.721-3.7-0.592-5.61-0.151a1.016,1.016,0,0,0-.664,1.811c0.823-1.189,1.912.016,1.912,0.016a1.28,1.28,0,0,1,1.173.579,3.323,3.323,0,0,0-2.06.306c-2.784,1.134-1.96-.879-1.96-0.879a0.871,0.871,0,0,0-.819.822c0.034,0.729,1.023,1.441,2.859.368a1.869,1.869,0,0,1,2.085-.06,0.78,0.78,0,0,1-.013.093c-3.208-.237-2.155,1.02-2.155,1.02,0.385-.638,1.767-0.061,1.767-0.061a2.362,2.362,0,0,1,.325.88c-0.774.817-1.294,0.235-1.294,0.235-0.415.359-.166,0.612,0.076,0.678a2.321,2.321,0,0,0,.509.081,2.137,2.137,0,0,0-.7,1.129c-0.336,1.338-2.33,1.952-2.33,1.952a0.872,0.872,0,0,0,1.108.151,1.716,1.716,0,0,1-1.233,1.419c-0.954-.486-2.931-1.3-3.54-0.075,0,0-3.8-.727-3.436-5.545s3.978-4.908,3.616-3.909c0,0,2.079-2-.362-3s-6.508.091-7.05-2.546c0,0-1.808,2.184,1.266,3.455,0,0-3.977,1.363-5.6-1.363,0,0-1.9,4.091,4.518,4.454a12.594,12.594,0,0,1-2.168.727c-2.169.546-4.791-1.363-4.791-1.363s-0.09,4.364,5.6,3.819c0,0-2.079,2.636-4.972,1.363,0,0,0,3.182,5.424,2.546,0,0-2.169,2.726-4.429,2.273,0,0,.9,3.637,5.243,1.273,0,0-.814,3.634-4.248,4.09,0,0,2.349,4.454,6.416-1.364,0,0-1.717,7.182-4.97,8.091,0,0,1.808,2.929,4.248.364,1.988-2.092,3.8-7.364,3.8-7.364s0.9,4.818-1.9,6.728a2.712,2.712,0,0,0,4.249-1c1.085-1.817.815-6.272,0.815-6.272s1.444,3.273.179,5c0,0,2.8-.545,2.893-2.637,0.037-.858,0-2.265-0.061-3.628a5.677,5.677,0,0,1,.806,6.073c-1.352.579-3.517,1.707-4.361,3.282a4.232,4.232,0,0,1,.594.246c-1.173.928-3.107,2.256-4.361,2.038a1.976,1.976,0,0,1-1.714-1.292s-2.723-.811-2.723,1.927a0.942,0.942,0,0,1,.908-0.71s1.008,0.559,1.411-.151a3.388,3.388,0,0,1,1.261.964s-2.874.2-3.782,1.572a2.018,2.018,0,0,0,.1,2.028,1.057,1.057,0,0,1,.455-1.116,1.024,1.024,0,0,0,1.261-1.014,1.025,1.025,0,0,1,1.159-.1,0.955,0.955,0,0,0,1.159-.456s-1.286,2.081-1.1,3.548a1.65,1.65,0,0,0,.037.2c0.354,1.471.453,1.116,0.957,1.218,0,0-.453-0.1-0.351-0.913,0,0,.956-1.065.151-1.623a0.872,0.872,0,0,1,.4-0.913,1.648,1.648,0,0,0,1.109-1.318s1.109,0.658,1.361.355,0.455-.355.707-0.051a0.973,0.973,0,0,0,.806.355,0.866,0.866,0,0,1,.3.964,1.523,1.523,0,0,0-.05-2.129,5.348,5.348,0,0,1-2.623-.405,11.084,11.084,0,0,1,3.278-1.421,3.263,3.263,0,0,0,1.193-.431,1.874,1.874,0,0,1,.256,1.266,5.555,5.555,0,0,0,3.71-4.094,5.857,5.857,0,0,1,.368,2.161c0,2.524-2.033,1.909-2.033,1.909A1.345,1.345,0,0,0,493.8,81.18a3.237,3.237,0,0,1-2.577,1.7c-1.83.136-.813-1.3-0.813-1.3-2.576-.2-1.22,2.113-1.22,2.113s-2.237-.545-3.052.887a1.679,1.679,0,0,0,1.018,2.658c-1.153-1.091-.136-2.112.678-1.7a1.029,1.029,0,0,0,1.219,0c-0.677,2.933,1.831,2.183,1.831,2.183-0.949-.887.023-1.593,1.491-2.455a6.423,6.423,0,0,0,2.373-2.659c0,4.7-3.05,4.294-3.05,4.294-0.068,2.933,2.576,1.228,2.576,1.228a1.48,1.48,0,1,0,2.439,0s2.644,1.705,2.577-1.228c0,0-3.05.41-3.05-4.294a6.415,6.415,0,0,0,2.373,2.659c1.468,0.862,2.439,1.567,1.49,2.455,0,0,2.509.75,1.831-2.183a1.033,1.033,0,0,0,1.221,0c0.812-.408,1.83.613,0.677,1.7a1.678,1.678,0,0,0,1.017-2.658c-0.814-1.433-3.051-.887-3.051-0.887s1.357-2.317-1.22-2.113c0,0,1.018,1.432-.813,1.3a3.24,3.24,0,0,1-2.578-1.7,1.345,1.345,0,0,0,1.493-1.637s-2.034.615-2.034-1.909a5.856,5.856,0,0,1,.368-2.161,5.557,5.557,0,0,0,3.711,4.093,1.874,1.874,0,0,1,.256-1.266,3.27,3.27,0,0,0,1.193.431,11.074,11.074,0,0,1,3.277,1.421,5.344,5.344,0,0,1-2.622.405,1.523,1.523,0,0,0-.05,2.129,0.866,0.866,0,0,1,.3-0.964,0.973,0.973,0,0,0,.806-0.355c0.252-.3.455-0.253,0.706,0.051s1.362-.355,1.362-0.355a1.648,1.648,0,0,0,1.109,1.318,0.872,0.872,0,0,1,.4.913c-0.806.558,0.152,1.623,0.152,1.623,0.1,0.811-.353.913-0.353,0.913,0.5-.1.6,0.254,0.958-1.218a1.859,1.859,0,0,0,.037-0.2c0.191-1.467-1.1-3.548-1.1-3.548a0.956,0.956,0,0,0,1.159.456,1.026,1.026,0,0,1,1.16.1,1.024,1.024,0,0,0,1.261,1.014,1.057,1.057,0,0,1,.455,1.116,2.018,2.018,0,0,0,.1-2.028c-0.909-1.369-3.782-1.572-3.782-1.572a3.388,3.388,0,0,1,1.261-.964c0.4,0.71,1.411.151,1.411,0.151a0.943,0.943,0,0,1,.908.71c0-2.738-2.723-1.927-2.723-1.927a1.974,1.974,0,0,1-1.714,1.292c-1.254.217-3.189-1.109-4.362-2.038a4.21,4.21,0,0,1,.595-0.246c-0.844-1.576-3.01-2.7-4.362-3.282a5.677,5.677,0,0,1,.807-6.072c-0.06,1.363-.1,2.77-0.061,3.628,0.091,2.092,2.892,2.637,2.892,2.637-1.265-1.728.181-5,.181-5s-0.271,4.456.814,6.272a2.711,2.711,0,0,0,4.248,1c-2.8-1.909-1.9-6.728-1.9-6.728s1.808,5.272,3.8,7.364c2.439,2.565,4.247-.364,4.247-0.364-3.253-.909-4.971-8.091-4.971-8.091,4.067,5.818,6.417,1.364,6.417,1.364-3.434-.456-4.247-4.09-4.247-4.09C515.1,67.931,516,64.294,516,64.294c-2.26.454-4.429-2.273-4.429-2.273,5.424,0.636,5.424-2.546,5.424-2.546C514.1,60.749,512.022,58.113,512.022,58.113Zm-16.374-5.992a11.171,11.171,0,0,1,1.7.137l2.4-2.83s-0.754-.58-0.9.131a0.576,0.576,0,0,0-.907-0.045c-0.285.3,0.035,0.639-.293,0.937a1.2,1.2,0,0,1-1.308.02c-0.4-.276-0.342-0.867.479-0.93,0,0,.195-0.7-0.731-0.482,0,0,.1-0.706-0.442-0.706s-0.44.706-.44,0.706c-0.926-.219-0.73.482-0.73,0.482,0.821,0.064.872,0.654,0.477,0.93a1.2,1.2,0,0,1-1.306-.02c-0.329-.3-0.007-0.636-0.294-0.937a0.575,0.575,0,0,0-.906.045c-0.152-.711-0.906-0.131-0.906-0.131l2.4,2.83A11.072,11.072,0,0,1,495.648,52.121Z"/>
  <path id="Welcome_to_Semplice_copy" data-name="Welcome to  Semplice! copy" class="onboarding-welcome-1" d="M26.4,337.884H53.284l27.841-83.522h1.152l27.649,83.522h26.881l26.112-134.4H137.19l-17.281,91.394h-0.576L88.42,203.481H75.364L44.451,294.875H43.875L26.6,203.481H0.29Zm211.2-35.137c-4.992,7.1-11.9,15.937-24.961,15.937-13.632,0-21.7-8.448-22.464-24.193h68.353V287c0-33.025-20.16-53.761-46.657-53.761S164.834,253.978,164.834,287,185,340.764,213.027,340.764c21.121,0,33.6-10.368,42.049-22.656Zm-47.425-26.88c0.96-11.328,9.024-20.737,21.7-20.737,13.441,0,21.313,7.872,22.465,20.737H190.179Zm83.711,62.017h25.921V197.721H273.89V337.884ZM382.946,296.8c-1.92,12.672-8.256,21.5-20.16,21.5-14.016,0-23.041-10.368-23.041-31.3,0-21.12,9.409-31.3,23.041-31.3,11.712,0,17.472,8.064,19.584,18.625l23.233-4.416c-3.456-22.081-19.777-36.673-42.817-36.673-25.729,0-47.617,19.008-47.617,53.761s20.736,53.761,47.425,53.761c23.232,0,39.361-13.44,43.969-37.825Zm78.909,21.5c-14.016,0-23.04-10.561-23.04-31.3s9.408-31.3,23.04-31.3S484.9,266.651,484.9,287,475.871,318.3,461.855,318.3Zm0,22.464c26.689,0,47.617-19.008,47.617-53.761s-22.272-53.761-47.617-53.761S414.238,252.25,414.238,287,435.166,340.764,461.855,340.764Zm62.974-2.88h24.192V272.027c0-8.833,5.569-15.745,17.473-15.745s17.664,7.872,17.664,17.089v64.513h22.849V272.027c0-8.833,5.76-15.745,17.472-15.745,12.865,0,17.665,7.872,17.665,17.089v64.513h22.848v-69.7c0-20.545-14.784-34.945-39.553-34.945-11.712,0-21.5,5.952-26.5,13.44h-0.384c-4.8-7.68-14.977-13.44-25.921-13.44s-20.16,5.76-24.576,12.672h-0.384v-9.792H524.829V337.884Zm227.328-35.137c-4.992,7.1-11.905,15.937-24.961,15.937-13.632,0-21.7-8.448-22.464-24.193h68.353V287c0-33.025-20.16-53.761-46.657-53.761S679.387,253.978,679.387,287s20.16,53.761,48.193,53.761c21.121,0,33.6-10.368,42.049-22.656Zm-47.425-26.88c0.96-11.328,9.024-20.737,21.7-20.737,13.44,0,21.312,7.872,22.464,20.737h-44.16Zm132.1,25.728c0,24.193,7.488,36.289,35.9,36.289h10.56v-24h-8.256c-11.52,0-13.633-4.417-13.633-14.593V257.242h25.345v-21.12H861.019V211.161H837.4v24.961h-16.32v21.12h15.744V301.6Zm105.215,16.7C928.026,318.3,919,307.739,919,287s9.408-31.3,23.04-31.3,23.041,10.945,23.041,31.3S956.059,318.3,942.042,318.3Zm0,22.464c26.689,0,47.618-19.008,47.618-53.761s-22.273-53.761-47.618-53.761S894.425,252.25,894.425,287,915.354,340.764,942.042,340.764ZM79.491,484.955c4.032,32.257,24,47.809,53.954,47.809,30.528,0,49.345-17.856,49.345-41.281,0-19.584-8.448-30.336-38.785-40.7-29.761-10.176-34.177-12.1-34.177-20.16S115.78,416.6,129.6,416.6c15.168,0,21.5,8.64,24.768,19.008l25.153-6.336c-4.8-25.729-26.305-36.673-49.921-36.673-29.185,0-45.313,18.432-45.313,38.209,0,17.472,9.408,29.761,38.4,38.785,30.145,9.408,34.753,13.056,34.753,23.616s-9.984,15.553-24,15.553c-17.857,0-23.617-9.984-26.689-29.761Zm182.785,9.792c-4.993,7.1-11.9,15.937-24.961,15.937-13.632,0-21.7-8.448-22.464-24.193H283.2V479c0-33.025-20.16-53.761-46.657-53.761S189.506,445.978,189.506,479s20.16,53.761,48.193,53.761c21.121,0,33.6-10.368,42.049-22.656Zm-47.425-26.88c0.959-11.329,9.024-20.737,21.7-20.737,13.44,0,21.312,7.872,22.464,20.737h-44.16Zm83.711,62.017h24.192V464.027c0-8.833,5.568-15.745,17.473-15.745s17.664,7.872,17.664,17.089v64.513H380.74V464.027c0-8.833,5.76-15.745,17.472-15.745,12.864,0,17.664,7.872,17.664,17.089v64.513h22.849v-69.7c0-20.545-14.784-34.945-39.553-34.945-11.712,0-21.5,5.952-26.5,13.44h-0.384c-4.8-7.68-14.976-13.44-25.92-13.44S326.21,431,321.794,437.914H321.41v-9.792H298.562V529.884ZM484.8,468.443c0-11.136,8.256-20.737,21.888-20.737,14.016,0,24.961,10.176,24.961,31.3,0,20.928-10.945,31.3-24.961,31.3-13.632,0-21.888-9.6-21.888-20.929V468.443ZM459.84,573.085H484.8V520.092h0.383s7.1,12.672,26.689,12.672c23.617,0,44.737-19.008,44.737-53.761s-22.656-53.761-45.121-53.761c-19.968,0-27.456,12.672-27.456,12.672h-0.385v-9.792H459.84V573.085Zm112.127-43.2h25.92V389.721h-25.92V529.884Zm48,0h24.96V428.122h-24.96V529.884Zm0-116.546h24.96V389.721h-24.96v23.617Zm108.1,75.457c-1.92,12.673-8.256,21.5-20.161,21.5-14.016,0-23.04-10.369-23.04-31.3,0-21.121,9.408-31.3,23.04-31.3,11.713,0,17.473,8.064,19.585,18.625l23.232-4.416c-3.456-22.081-19.776-36.673-42.817-36.673-25.728,0-47.617,19.008-47.617,53.761s20.737,53.761,47.425,53.761c23.233,0,39.361-13.44,43.969-37.825Zm104.061,5.952c-4.992,7.1-11.9,15.937-24.96,15.937-13.633,0-21.7-8.448-22.465-24.193H853.05V479c0-33.025-20.16-53.761-46.657-53.761S759.352,445.978,759.352,479s20.161,53.761,48.194,53.761c21.12,0,33.6-10.368,42.048-22.656ZM784.7,467.867c0.96-11.329,9.024-20.737,21.7-20.737,13.441,0,21.313,7.872,22.465,20.737H784.7Zm88.7,17.664h25.921v-90.05H873.4v90.05Zm-1.152,44.353h28.609V502.62H872.248v27.264Z"/>
  <path id="We_ve_prepared_this_1-minute_tour_to_help_you_kickstart_your_po_copy" data-name="We’ve prepared this 1-minute tour to help you kickstart your po copy" class="onboarding-welcome-2" d="M59.387,645.348v-0.614H45.922v0.614c2.355,0.154,5.99.973,5.99,2.765,0,1.331-.256,2.355-1.075,5.171-1.177,4.146-3.481,11.109-6.246,19.1-3.635-11.571-6.911-21.656-7.577-23.807a5.555,5.555,0,0,1-.2-1.279c0-1.229,3.226-1.844,5.017-1.946v-0.614H27.236v0.614a11.421,11.421,0,0,1,3.788.922,4.929,4.929,0,0,1,2.253,4.1,4.786,4.786,0,0,1-.2,1.28L25.6,672.636c-3.481-11.519-6.6-21.81-7.321-24.114a5.544,5.544,0,0,1-.2-1.28c0-1.228,3.788-1.792,5.58-1.894v-0.614H8.958v0.614a7.851,7.851,0,0,1,3.328.87,3.656,3.656,0,0,1,1.843,2.458c1.28,4.608,5.12,18.021,9.113,31.434h0.921l9.779-27.594c2.048,6.45,5.324,16.894,8.4,27.594h0.87c3.686-10.9,8.14-24.267,10.239-30.564a5.931,5.931,0,0,1,2.611-3.225A8.013,8.013,0,0,1,59.387,645.348Zm16.946,28.875-0.614-.359c-1.946,3.123-3.43,4.813-7.475,4.813-5.529,0-7.731-5.017-7.731-11.571v-0.512H75.872v-0.358c0-5.836-2.458-10.29-9.113-10.29-6.451,0-10.188,5.939-10.188,11.98,0,6.655,3.379,12.287,10.751,12.287A9.822,9.822,0,0,0,76.333,674.223Zm-4.3-8.652-11.519.1c0.154-5.683,2.765-9.011,6.348-9.011C71.162,656.662,72.032,660.861,72.032,665.571Zm13.057-18.994c0-2.867-.87-4.608-3.635-4.608A2.709,2.709,0,0,0,79,644.58a2.652,2.652,0,0,0,2.969,2.714H83.5c-0.2,2.918-2.508,5.068-5.017,6.553l0.461,0.768C82.939,652.618,85.089,649.188,85.089,646.577Zm25.035,10.6v-0.563h-8.755v0.615c0.819,0.1,3.738.665,3.738,1.843a5.98,5.98,0,0,1-.256,1.433c-2.1,5.325-3.84,9.523-5.939,14.54H98.758c-2.1-5.529-5.017-12.85-6.041-15.513a7.872,7.872,0,0,1-.359-1.075c0-.819,1.638-1.126,2.816-1.177v-0.666H84.987v0.615a4.616,4.616,0,0,1,3.84,2.559c3.43,8.294,4.659,11.264,8.243,20.325H97.99a51.318,51.318,0,0,1,2.048-5.529c2.2-5.324,4.556-10.853,6.144-14.54A5.676,5.676,0,0,1,110.124,657.174Zm20.025,17.049-0.615-.359c-1.945,3.123-3.43,4.813-7.475,4.813-5.529,0-7.73-5.017-7.73-11.571v-0.512h15.359v-0.358c0-5.836-2.458-10.29-9.113-10.29-6.451,0-10.188,5.939-10.188,11.98,0,6.655,3.379,12.287,10.751,12.287A9.823,9.823,0,0,0,130.149,674.223Zm-4.3-8.652-11.519.1c0.153-5.683,2.764-9.011,6.348-9.011C124.978,656.662,125.848,660.861,125.848,665.571Zm43.826,2.764c0-7.474-4.761-12.389-10.751-12.389a9.984,9.984,0,0,0-6.963,3.327l-0.205-.051v-2.611L151.4,656.3l-7.27.563v0.512a6.759,6.759,0,0,1,2.816.87,3.2,3.2,0,0,1,1.331,2.56v26.776c0,1.126-.359,2.355-1.331,2.662a11.2,11.2,0,0,1-2.765.41v0.614h12.543v-0.614a14.566,14.566,0,0,1-3.43-.717,2.545,2.545,0,0,1-1.433-2.457v-8.755h0.2a9.316,9.316,0,0,0,5.888,1.587A11.81,11.81,0,0,0,169.674,668.335Zm-4.1-.051c0,7.27-3.225,11.366-7.526,11.366a6.441,6.441,0,0,1-6.194-4.3V660.3a7.6,7.6,0,0,1,5.836-2.764C163.377,657.533,165.578,662.96,165.578,668.284Zm24.474-9.676a2.783,2.783,0,0,0-2.765-2.56c-2,0-4.659,1.229-6.911,4.147h-0.1v-3.533l-0.358-.358-7.065.563v0.512a5.4,5.4,0,0,1,2.509.819,3.393,3.393,0,0,1,1.382,2.714v15.512a2.247,2.247,0,0,1-1.434,2.355,7.479,7.479,0,0,1-2.252.307V679.7h11.877v-0.615a11.539,11.539,0,0,1-3.276-.563,2.316,2.316,0,0,1-1.383-2.355V661.475c0.717-1.28,2.765-3.686,5.478-3.686a4.076,4.076,0,0,0-.358,1.433,2.011,2.011,0,0,0,2.3,2.151C189.233,661.373,190.052,660.093,190.052,658.608Zm21.35,15.615-0.615-.359c-1.945,3.123-3.43,4.813-7.474,4.813-5.53,0-7.731-5.017-7.731-11.571v-0.512h15.359v-0.358c0-5.836-2.458-10.29-9.113-10.29-6.451,0-10.188,5.939-10.188,11.98,0,6.655,3.379,12.287,10.751,12.287A9.823,9.823,0,0,0,211.4,674.223Zm-4.3-8.652-11.519.1c0.154-5.683,2.764-9.011,6.348-9.011C206.231,656.662,207.1,660.861,207.1,665.571Zm31.539,2.764c0-7.474-4.762-12.389-10.752-12.389a9.982,9.982,0,0,0-6.962,3.327l-0.2-.051v-2.611l-0.359-.307-7.269.563v0.512a6.754,6.754,0,0,1,2.815.87,3.206,3.206,0,0,1,1.332,2.56v26.776c0,1.126-.359,2.355-1.332,2.662a11.2,11.2,0,0,1-2.764.41v0.614h12.543v-0.614a14.556,14.556,0,0,1-3.43-.717,2.544,2.544,0,0,1-1.434-2.457v-8.755h0.2a9.316,9.316,0,0,0,5.888,1.587A11.81,11.81,0,0,0,238.64,668.335Zm-4.1-.051c0,7.27-3.225,11.366-7.526,11.366a6.442,6.442,0,0,1-6.195-4.3V660.3a7.6,7.6,0,0,1,5.837-2.764C232.342,657.533,234.544,662.96,234.544,668.284Zm29.8,5.529h-0.666c-0.256,2.816-.87,4.25-2.355,4.25-1.638,0-2.2-1.332-2.2-3.072,0-1.69.256-7.014,0.256-11.468,0-6.5-3.43-7.577-8.191-7.577-3.789,0-7.68,2.406-7.68,5.427,0,1.177.461,2.406,1.741,2.406,1.484,0,2.508-.871,2.508-1.946,0-.87-0.307-2.56-0.358-3.481a3.921,3.921,0,0,1,3.379-1.69c3.584,0,4.915,2.407,4.915,5.12v3.481c-2.2,1.229-5.581,2.151-8.5,3.277-2.56.973-5.017,2.3-5.017,6.5,0,3.277,2.3,5.171,5.836,5.171a10.1,10.1,0,0,0,7.577-3.533h0.154c0.665,2.3,2.1,3.43,4.2,3.43C262.448,680.11,263.932,678.523,264.342,673.813Zm-8.6-7.321-0.205,9.164c-1.382,1.69-3.123,3.123-5.683,3.123-2.508,0-3.788-1.536-3.788-4.351C246.065,669.769,250.007,668.13,255.741,666.492Zm26.982-7.884a2.783,2.783,0,0,0-2.765-2.56c-2,0-4.658,1.229-6.911,4.147h-0.1v-3.533l-0.359-.358-7.065.563v0.512a5.4,5.4,0,0,1,2.509.819,3.393,3.393,0,0,1,1.382,2.714v15.512a2.247,2.247,0,0,1-1.433,2.355,7.49,7.49,0,0,1-2.253.307V679.7H277.6v-0.615a11.539,11.539,0,0,1-3.276-.563,2.316,2.316,0,0,1-1.382-2.355V661.475c0.716-1.28,2.764-3.686,5.478-3.686a4.06,4.06,0,0,0-.359,1.433,2.011,2.011,0,0,0,2.3,2.151C281.9,661.373,282.723,660.093,282.723,658.608Zm21.35,15.615-0.615-.359c-1.945,3.123-3.43,4.813-7.474,4.813-5.53,0-7.731-5.017-7.731-11.571v-0.512h15.359v-0.358c0-5.836-2.458-10.29-9.113-10.29-6.451,0-10.188,5.939-10.188,11.98,0,6.655,3.379,12.287,10.751,12.287A9.823,9.823,0,0,0,304.073,674.223Zm-4.3-8.652-11.519.1c0.154-5.683,2.765-9.011,6.348-9.011C298.9,656.662,299.772,660.861,299.772,665.571Zm32.716,13.72v-0.614a7.738,7.738,0,0,1-3.02-.614,2.971,2.971,0,0,1-1.332-2.509V641.867l-0.358-.359-9.062.512v0.563a11.657,11.657,0,0,1,4.506,1.127,3.642,3.642,0,0,1,1.331,2.969v10.649a15.174,15.174,0,0,0-6.195-1.382,11.828,11.828,0,0,0-11.775,11.877c0,7.68,4.812,12.492,10.956,12.492a9.953,9.953,0,0,0,6.86-3.174l0.2,0.051v2.2l0.358,0.358Zm-7.935-3.328c-1.434,1.485-3.021,2.867-5.683,2.867-5.734,0-8.243-5.119-8.243-10.392,0-7.219,3.226-11.776,7.526-11.776a6.59,6.59,0,0,1,6.4,4.506v14.795Zm37.528-2.355h-0.819c-0.512,2.97-1.74,4.608-3.788,4.608-2.918,0-3.584-2-3.584-5.324V658.147h6.963v-1.433h-7.014v-8.038h-3.43v8.038h-5.12v1.433h5.017V673.2c0,4.5,1.9,6.911,5.734,6.911C359.931,680.11,361.569,677.141,362.081,673.608Zm27.75,6.093v-0.615a6.073,6.073,0,0,1-2.253-.511,2.362,2.362,0,0,1-1.382-2.356V664.035c0-4.864-2.048-8.089-6.809-8.089-4.4,0-6.451,2.3-8.4,4.2h-0.1V641.867l-0.358-.359-7.987.512v0.615a9.625,9.625,0,0,1,3.379.768,3.6,3.6,0,0,1,1.382,2.969v30.052a2.211,2.211,0,0,1-1.382,2.355,7.486,7.486,0,0,1-2.253.307V679.7h11.315v-0.615a7.188,7.188,0,0,1-2.611-.563,2.438,2.438,0,0,1-1.485-2.355V661.475a7.949,7.949,0,0,1,6.963-3.737c2.406,0,4.71,2,4.71,5.58v13.106a2.244,2.244,0,0,1-1.587,2.355,12.578,12.578,0,0,1-2.611.307V679.7h11.468Zm10.65-33.892a2.557,2.557,0,0,0-2.713-2.458,2.759,2.759,0,0,0-2.611,2.765,2.656,2.656,0,0,0,2.611,2.611A2.81,2.81,0,0,0,400.481,645.809ZM403.6,679.7v-0.512a9.582,9.582,0,0,1-2.252-.563,2.481,2.481,0,0,1-1.383-2.407V656.662l-0.358-.358-7.577.563v0.41a7.534,7.534,0,0,1,2.969.972,3.157,3.157,0,0,1,1.434,2.56v15.718a2.292,2.292,0,0,1-1.383,2.355,7.479,7.479,0,0,1-2.252.307V679.7h10.8Zm18.943-6.4c0-4.249-2.713-6.092-6.963-7.474-4.3-1.383-6.246-1.895-6.246-4.966,0-2.356,1.434-4.147,4.608-4.147,3.43,0,6.093,2.713,6.86,5.99h0.615l-0.358-6.809H420.5l-0.972,1.587a9.658,9.658,0,0,0-5.325-1.536c-4.352,0-7.065,2.764-7.065,6.5,0,4.3,2.918,5.887,7.014,7.167,4.147,1.28,6.195,2.253,6.195,4.966,0,2.867-1.587,4.915-5.632,4.915-3.891,0-6.6-3.123-7.577-7.27h-0.614l0.256,7.68h0.563l0.973-1.587a11.125,11.125,0,0,0,6.194,2.047C418.963,680.366,422.547,677.6,422.547,673.3Zm32.921,6.4v-0.615a15.043,15.043,0,0,1-3.789-.614,2.636,2.636,0,0,1-1.484-2.457v-20.53a51.278,51.278,0,0,1,.717-7.526h-0.461a13.35,13.35,0,0,1-6.758,2.15,12.819,12.819,0,0,1-4.915-1.177l-0.256.461c1.843,1.535,3.942,2.815,5.273,2.815a7.4,7.4,0,0,0,2.662-.358v24.421a2.454,2.454,0,0,1-1.535,2.406,23.914,23.914,0,0,1-3.994.409V679.7h14.54ZM474,668.335v-2.764H458.232v2.764H474ZM518.9,679.7v-0.615a7.531,7.531,0,0,1-2.509-.511,2.435,2.435,0,0,1-1.382-2.407V664.342c0-4.864-1.945-8.4-6.707-8.4-4.4,0-6.246,2.457-8.4,4.454a7.119,7.119,0,0,0-6.553-4.454c-4.4,0-6.246,2.355-8.294,4.3h-0.153v-3.584l-0.359-.358-7.167.563v0.512a6.122,6.122,0,0,1,2.662.973,2.84,2.84,0,0,1,1.382,2.406v15.666a2.247,2.247,0,0,1-1.433,2.355,7.486,7.486,0,0,1-2.253.307V679.7h11.314v-0.615a6.7,6.7,0,0,1-2.559-.563,2.552,2.552,0,0,1-1.536-2.406V661.475a8.124,8.124,0,0,1,6.809-3.737c2.406,0,4.659,1.945,4.659,5.478v13.208a2.23,2.23,0,0,1-1.639,2.355,8.666,8.666,0,0,1-2.15.307V679.7H503.9v-0.615a6.731,6.731,0,0,1-2.457-.511,2.438,2.438,0,0,1-1.485-2.407V661.424a8.029,8.029,0,0,1,6.809-3.686c2.407,0,4.659,1.945,4.659,5.478v13.208a2.231,2.231,0,0,1-1.638,2.355,10.019,10.019,0,0,1-2.3.307V679.7H518.9Zm10.447-33.892a2.558,2.558,0,0,0-2.714-2.458,2.759,2.759,0,0,0-2.611,2.765,2.656,2.656,0,0,0,2.611,2.611A2.811,2.811,0,0,0,529.348,645.809Zm3.123,33.892v-0.512a9.576,9.576,0,0,1-2.253-.563,2.481,2.481,0,0,1-1.383-2.407V656.662l-0.358-.358-7.577.563v0.41a7.528,7.528,0,0,1,2.969.972,3.154,3.154,0,0,1,1.434,2.56v15.718a2.292,2.292,0,0,1-1.382,2.355,7.486,7.486,0,0,1-2.253.307V679.7h10.8Zm29.079,0v-0.615a6.072,6.072,0,0,1-2.252-.511,2.362,2.362,0,0,1-1.383-2.356V664.035c0-4.864-2.15-8.089-6.911-8.089-4.4,0-6.348,2.3-8.294,4.2h-0.1v-3.482l-0.359-.358-7.065.563v0.512a5.4,5.4,0,0,1,2.509.819,3.393,3.393,0,0,1,1.382,2.714v15.512a2.246,2.246,0,0,1-1.433,2.355,7.486,7.486,0,0,1-2.253.307V679.7h11.366v-0.615a7.427,7.427,0,0,1-2.611-.563,2.409,2.409,0,0,1-1.536-2.355V661.475a7.948,7.948,0,0,1,6.962-3.737c2.407,0,4.762,2,4.762,5.58v13.106a2.244,2.244,0,0,1-1.587,2.355,12.578,12.578,0,0,1-2.611.307V679.7H561.55Zm28.109-.41v-0.614a4.919,4.919,0,0,1-2.406-.614,2.883,2.883,0,0,1-1.331-2.458V656.662l-0.359-.358-8.14.614v0.564a8.556,8.556,0,0,1,3.532.614,2.984,2.984,0,0,1,1.383,2.56v14.437a7.79,7.79,0,0,1-6.758,3.635c-2.457,0-4.454-1.894-4.454-5.478V656.662l-0.41-.358-7.065.614v0.564a5.376,5.376,0,0,1,2.509.767,3.063,3.063,0,0,1,1.331,2.56v11.11c0,4.812,1.894,8.345,6.656,8.345,4.4,0,6.143-2.048,8.088-3.993h0.154v3.123l0.358,0.358Zm18.022-5.683h-0.819c-0.512,2.97-1.74,4.608-3.788,4.608-2.918,0-3.584-2-3.584-5.324V658.147h6.963v-1.433h-7.014v-8.038h-3.43v8.038h-5.12v1.433h5.017V673.2c0,4.5,1.9,6.911,5.734,6.911C605.531,680.11,607.17,677.141,607.681,673.608Zm21.657,0.615-0.614-.359c-1.946,3.123-3.43,4.813-7.475,4.813-5.529,0-7.73-5.017-7.73-11.571v-0.512h15.359v-0.358c0-5.836-2.458-10.29-9.113-10.29-6.451,0-10.188,5.939-10.188,11.98,0,6.655,3.379,12.287,10.751,12.287A9.822,9.822,0,0,0,629.338,674.223Zm-4.3-8.652-11.519.1c0.153-5.683,2.764-9.011,6.348-9.011C624.167,656.662,625.038,660.861,625.038,665.571Zm34.252,8.037h-0.819c-0.512,2.97-1.741,4.608-3.789,4.608-2.918,0-3.583-2-3.583-5.324V658.147h6.962v-1.433h-7.014v-8.038h-3.43v8.038H642.5v1.433h5.017V673.2c0,4.5,1.894,6.911,5.734,6.911C657.14,680.11,658.778,677.141,659.29,673.608Zm24.37-5.734c0-6.706-4.351-11.928-11.109-11.928-6.861,0-11.417,5.068-11.417,12.338,0,7.423,5.222,12.082,10.956,12.082C679.411,680.366,683.66,674.581,683.66,667.874Zm-3.942.052c0,6.3-2.355,11.724-7.27,11.724-5.222,0-7.372-5.581-7.372-11.827,0-5.017,1.587-11.161,7.372-11.161C677.824,656.662,679.718,662.4,679.718,667.926Zm32.46,11.365v-0.614a4.925,4.925,0,0,1-2.406-.614,2.883,2.883,0,0,1-1.331-2.458V656.662l-0.358-.358-8.14.614v0.564a8.559,8.559,0,0,1,3.532.614,2.986,2.986,0,0,1,1.382,2.56v14.437a7.789,7.789,0,0,1-6.758,3.635c-2.457,0-4.454-1.894-4.454-5.478V656.662l-0.409-.358-7.065.614v0.564a5.372,5.372,0,0,1,2.508.767,3.061,3.061,0,0,1,1.331,2.56v11.11c0,4.812,1.895,8.345,6.656,8.345,4.4,0,6.143-2.048,8.089-3.993h0.154v3.123l0.358,0.358Zm19.968-20.683a2.782,2.782,0,0,0-2.764-2.56c-2,0-4.659,1.229-6.912,4.147h-0.1v-3.533l-0.358-.358-7.066.563v0.512a5.4,5.4,0,0,1,2.509.819,3.393,3.393,0,0,1,1.382,2.714v15.512a2.246,2.246,0,0,1-1.433,2.355,7.486,7.486,0,0,1-2.253.307V679.7h11.878v-0.615a11.546,11.546,0,0,1-3.277-.563,2.317,2.317,0,0,1-1.382-2.355V661.475c0.717-1.28,2.765-3.686,5.478-3.686a4.076,4.076,0,0,0-.358,1.433,2.01,2.01,0,0,0,2.3,2.151C731.327,661.373,732.146,660.093,732.146,658.608Zm29.03,15h-0.819c-0.512,2.97-1.741,4.608-3.789,4.608-2.918,0-3.583-2-3.583-5.324V658.147h6.962v-1.433h-7.014v-8.038H749.5v8.038h-5.119v1.433H749.4V673.2c0,4.5,1.894,6.911,5.734,6.911C759.026,680.11,760.664,677.141,761.176,673.608Zm24.37-5.734c0-6.706-4.351-11.928-11.109-11.928-6.861,0-11.417,5.068-11.417,12.338,0,7.423,5.222,12.082,10.956,12.082C781.3,680.366,785.546,674.581,785.546,667.874Zm-3.942.052c0,6.3-2.355,11.724-7.27,11.724-5.222,0-7.372-5.581-7.372-11.827,0-5.017,1.587-11.161,7.372-11.161C779.71,656.662,781.6,662.4,781.6,667.926ZM826.915,679.7v-0.615a6.078,6.078,0,0,1-2.253-.511,2.363,2.363,0,0,1-1.382-2.356V664.035c0-4.864-2.048-8.089-6.809-8.089-4.4,0-6.451,2.3-8.4,4.2h-0.1V641.867l-0.359-.359-7.987.512v0.615a9.625,9.625,0,0,1,3.379.768,3.6,3.6,0,0,1,1.383,2.969v30.052a2.212,2.212,0,0,1-1.383,2.355,7.479,7.479,0,0,1-2.252.307V679.7h11.314v-0.615a7.188,7.188,0,0,1-2.611-.563,2.439,2.439,0,0,1-1.484-2.355V661.475a7.948,7.948,0,0,1,6.962-3.737c2.406,0,4.71,2,4.71,5.58v13.106a2.244,2.244,0,0,1-1.587,2.355,12.578,12.578,0,0,1-2.611.307V679.7h11.468Zm22.528-5.478-0.614-.359c-1.946,3.123-3.431,4.813-7.475,4.813-5.529,0-7.731-5.017-7.731-11.571v-0.512h15.359v-0.358c0-5.836-2.457-10.29-9.113-10.29-6.45,0-10.188,5.939-10.188,11.98,0,6.655,3.379,12.287,10.751,12.287A9.823,9.823,0,0,0,849.443,674.223Zm-4.3-8.652-11.52.1c0.154-5.683,2.765-9.011,6.349-9.011C844.272,656.662,845.143,660.861,845.143,665.571Zm17.408,14.13v-0.512a5.423,5.423,0,0,1-2.253-.563,2.435,2.435,0,0,1-1.382-2.407V641.867l-0.359-.359-8.14.512v0.512a10.53,10.53,0,0,1,3.533.973,3.5,3.5,0,0,1,1.382,2.918v30.1a2.213,2.213,0,0,1-1.382,2.355,7.486,7.486,0,0,1-2.253.307V679.7h10.854Zm27.595-11.366c0-7.474-4.761-12.389-10.752-12.389a9.982,9.982,0,0,0-6.962,3.327l-0.205-.051v-2.611l-0.358-.307-7.27.563v0.512a6.763,6.763,0,0,1,2.816.87,3.2,3.2,0,0,1,1.331,2.56v26.776c0,1.126-.359,2.355-1.331,2.662a11.2,11.2,0,0,1-2.765.41v0.614h12.543v-0.614a14.566,14.566,0,0,1-3.43-.717,2.543,2.543,0,0,1-1.433-2.457v-8.755h0.2a9.316,9.316,0,0,0,5.888,1.587A11.81,11.81,0,0,0,890.146,668.335Zm-4.1-.051c0,7.27-3.225,11.366-7.526,11.366a6.441,6.441,0,0,1-6.194-4.3V660.3a7.6,7.6,0,0,1,5.836-2.764C883.849,657.533,886.05,662.96,886.05,668.284Zm42.137-11.11v-0.563h-8.755v0.615c0.819,0.1,3.942.87,3.942,1.843a4.894,4.894,0,0,1-.358,1.433c-2.048,5.325-3.84,9.625-5.939,14.642h-0.051c-2.1-5.529-5.068-12.9-6.041-15.615a6.3,6.3,0,0,1-.358-1.075c0-.768,1.638-1.126,2.815-1.177v-0.666H903.408v0.615a4.517,4.517,0,0,1,3.686,2.559c2.457,6.042,3.942,9.779,7.935,20.274-1.843,4.608-4.454,8.96-6.553,9.471v-1.74a2.113,2.113,0,0,0-2.3-2.253,2.686,2.686,0,0,0-2.611,2.611c0,2.3,2.2,3.072,3.431,3.072,3.123,0,5.119-2,8.908-10.751,0.409-.922,1.229-3.123,2.3-5.683,2.3-5.478,5.426-12.953,6.194-14.745A6.057,6.057,0,0,1,928.187,657.174Zm22.937,10.7c0-6.706-4.351-11.928-11.109-11.928-6.86,0-11.417,5.068-11.417,12.338,0,7.423,5.222,12.082,10.956,12.082C946.875,680.366,951.124,674.581,951.124,667.874Zm-3.942.052c0,6.3-2.355,11.724-7.27,11.724-5.222,0-7.372-5.581-7.372-11.827,0-5.017,1.587-11.161,7.372-11.161C945.288,656.662,947.182,662.4,947.182,667.926Zm32.461,11.365v-0.614a4.926,4.926,0,0,1-2.407-.614,2.883,2.883,0,0,1-1.331-2.458V656.662l-0.358-.358-8.14.614v0.564a8.559,8.559,0,0,1,3.532.614,2.986,2.986,0,0,1,1.382,2.56v14.437a7.788,7.788,0,0,1-6.757,3.635c-2.458,0-4.455-1.894-4.455-5.478V656.662L960.7,656.3l-7.065.614v0.564a5.372,5.372,0,0,1,2.508.767,3.061,3.061,0,0,1,1.331,2.56v11.11c0,4.812,1.895,8.345,6.656,8.345,4.4,0,6.144-2.048,8.089-3.993h0.154v3.123l0.358,0.358Zm-850.7,67.61v-0.512a3.992,3.992,0,0,1-1.689-.461,4.281,4.281,0,0,1-1.946-1.536c-3.021-5.529-4.761-9.778-9.932-12.185,1.792-1.791,3.123-3.123,5.171-4.966,1.894-1.689,2.867-2.047,5.836-2.918v-0.512H116.4v0.563c1.331,0.154,3.737.512,3.737,1.383a1.815,1.815,0,0,1-.614,1.075c-2.15,2.355-6.912,6.963-8.755,8.6V709.067l-0.358-.359-7.987.512v0.512a7.833,7.833,0,0,1,3.379.819,3.469,3.469,0,0,1,1.383,2.97v30.206a2.213,2.213,0,0,1-1.383,2.355,7.479,7.479,0,0,1-2.252.307V746.9h11.16v-0.512a7.819,7.819,0,0,1-2.508-.615,2.283,2.283,0,0,1-1.434-2.3v-7.117a3.17,3.17,0,0,1,2.458-.921c3.839,0,7.577,7.475,8.805,11.468h6.912Zm9.114-33.892a2.557,2.557,0,0,0-2.713-2.458,2.759,2.759,0,0,0-2.611,2.765,2.656,2.656,0,0,0,2.611,2.611A2.81,2.81,0,0,0,138.06,713.009Zm3.123,33.892v-0.512a9.582,9.582,0,0,1-2.252-.563,2.481,2.481,0,0,1-1.383-2.407V723.862l-0.358-.358-7.577.563v0.41a7.513,7.513,0,0,1,2.969.973,3.154,3.154,0,0,1,1.434,2.559v15.718a2.293,2.293,0,0,1-1.382,2.355,7.49,7.49,0,0,1-2.253.307V746.9h10.8Zm22.066-5.325-0.563-.358c-2.3,3.584-4.147,4.659-7.372,4.659-4.659,0-7.321-5.069-7.321-11.058,0-7.731,3.277-11.008,6.809-11.008,1.894,0,3.277.768,3.584,2.407,0,0.972-.615.921-0.615,3.174a2.273,2.273,0,0,0,2.407,2.3c1.484,0,2.3-.972,2.3-2.611,0-3.02-2.662-5.938-7.628-5.938-6.706,0-10.853,5.836-10.853,12.082,0,7.065,3.686,12.185,10.341,12.185C158.181,747.413,161.3,745.518,163.249,741.576ZM190.64,746.9v-0.512a4,4,0,0,1-1.689-.461,4.284,4.284,0,0,1-1.945-1.536c-3.021-5.529-4.762-9.778-9.932-12.185,1.791-1.791,3.122-3.123,5.17-4.966,1.9-1.689,2.867-2.047,5.837-2.918v-0.512H178.1v0.563c1.332,0.154,3.738.512,3.738,1.383a1.812,1.812,0,0,1-.615,1.075c-2.15,2.355-6.911,6.963-8.754,8.6V709.067l-0.359-.359-7.986.512v0.512a7.837,7.837,0,0,1,3.379.819,3.469,3.469,0,0,1,1.382,2.97v30.206a2.214,2.214,0,0,1-1.382,2.355,7.486,7.486,0,0,1-2.253.307V746.9h11.161v-0.512a7.819,7.819,0,0,1-2.509-.615,2.284,2.284,0,0,1-1.433-2.3v-7.117a3.168,3.168,0,0,1,2.457-.921c3.84,0,7.577,7.475,8.806,11.468h6.911ZM208,740.5c0-4.249-2.713-6.092-6.962-7.474-4.3-1.383-6.246-1.9-6.246-4.966,0-2.355,1.433-4.147,4.608-4.147,3.43,0,6.092,2.713,6.86,5.99h0.614l-0.358-6.81H205.95l-0.973,1.588a9.658,9.658,0,0,0-5.325-1.536c-4.351,0-7.065,2.764-7.065,6.5,0,4.3,2.919,5.887,7.014,7.167,4.147,1.28,6.195,2.253,6.195,4.966,0,2.867-1.587,4.915-5.631,4.915-3.892,0-6.6-3.123-7.578-7.27h-0.614l0.256,7.68h0.563l0.973-1.588a11.121,11.121,0,0,0,6.2,2.048C204.414,747.566,208,744.8,208,740.5Zm18.837,0.307h-0.819c-0.512,2.97-1.741,4.608-3.789,4.608-2.918,0-3.583-2-3.583-5.324V725.347h6.962v-1.433h-7.013v-8.038h-3.431v8.038h-5.119v1.433h5.017V740.4c0,4.5,1.894,6.911,5.734,6.911C224.684,747.31,226.322,744.341,226.834,740.808Zm24.319,0.205h-0.665c-0.256,2.816-.871,4.249-2.355,4.249-1.639,0-2.2-1.331-2.2-3.071,0-1.69.256-7.014,0.256-11.468,0-6.5-3.43-7.577-8.191-7.577-3.789,0-7.68,2.406-7.68,5.427,0,1.177.461,2.406,1.741,2.406,1.485,0,2.509-.871,2.509-1.946,0-.87-0.307-2.559-0.359-3.481a3.921,3.921,0,0,1,3.379-1.69c3.584,0,4.915,2.407,4.915,5.12v3.481c-2.2,1.229-5.58,2.151-8.5,3.277-2.559.973-5.017,2.3-5.017,6.5,0,3.276,2.3,5.171,5.837,5.171a10.1,10.1,0,0,0,7.577-3.533h0.153c0.666,2.3,2.1,3.43,4.2,3.43C249.259,747.31,250.744,745.723,251.153,741.013Zm-8.6-7.321-0.2,9.164c-1.383,1.69-3.123,3.123-5.683,3.123-2.509,0-3.789-1.536-3.789-4.351C232.876,736.969,236.818,735.33,242.552,733.692Zm26.982-7.884a2.782,2.782,0,0,0-2.764-2.56c-2,0-4.659,1.229-6.912,4.147h-0.1v-3.533L259.4,723.5l-7.066.563v0.512a5.4,5.4,0,0,1,2.509.819,3.394,3.394,0,0,1,1.382,2.714v15.512a2.246,2.246,0,0,1-1.433,2.355,7.486,7.486,0,0,1-2.253.307V746.9h11.878v-0.615a11.54,11.54,0,0,1-3.277-.563,2.317,2.317,0,0,1-1.382-2.355V728.675c0.717-1.28,2.764-3.686,5.478-3.686a4.082,4.082,0,0,0-.359,1.433,2.011,2.011,0,0,0,2.3,2.151C268.715,728.573,269.534,727.293,269.534,725.808Zm17.255,15H285.97c-0.512,2.97-1.741,4.608-3.789,4.608-2.918,0-3.584-2-3.584-5.324V725.347h6.963v-1.433h-7.014v-8.038h-3.43v8.038H270v1.433h5.017V740.4c0,4.5,1.894,6.911,5.734,6.911C284.639,747.31,286.277,744.341,286.789,740.808Zm36.658-16.434v-0.563h-8.755v0.615c0.819,0.1,3.942.87,3.942,1.843a4.925,4.925,0,0,1-.358,1.433c-2.048,5.325-3.84,9.625-5.939,14.642h-0.051c-2.1-5.529-5.069-12.9-6.041-15.615a6.328,6.328,0,0,1-.359-1.075c0-.768,1.639-1.126,2.816-1.177v-0.666H298.668v0.615a4.52,4.52,0,0,1,3.686,2.559c2.457,6.042,3.942,9.779,7.935,20.274-1.843,4.608-4.454,8.959-6.553,9.471v-1.74a2.113,2.113,0,0,0-2.3-2.253,2.686,2.686,0,0,0-2.611,2.611c0,2.3,2.2,3.072,3.43,3.072,3.123,0,5.12-2,8.909-10.751,0.409-.922,1.228-3.123,2.3-5.683,2.3-5.478,5.427-12.953,6.195-14.745A6.055,6.055,0,0,1,323.447,724.374Zm22.937,10.7c0-6.706-4.351-11.928-11.109-11.928-6.861,0-11.417,5.068-11.417,12.338,0,7.424,5.222,12.082,10.956,12.082C342.135,747.566,346.384,741.781,346.384,735.074Zm-3.942.052c0,6.3-2.355,11.724-7.27,11.724-5.222,0-7.372-5.581-7.372-11.827,0-5.017,1.587-11.161,7.372-11.161C340.548,723.862,342.442,729.6,342.442,735.126Zm32.46,11.365v-0.614a4.911,4.911,0,0,1-2.406-.615,2.88,2.88,0,0,1-1.331-2.457V723.862l-0.358-.358-8.141.614v0.564a8.564,8.564,0,0,1,3.533.614,2.986,2.986,0,0,1,1.382,2.56v14.437a7.79,7.79,0,0,1-6.758,3.635c-2.457,0-4.454-1.894-4.454-5.478V723.862l-0.409-.358-7.065.614v0.564a5.361,5.361,0,0,1,2.508.768,3.06,3.06,0,0,1,1.331,2.559v11.11c0,4.812,1.9,8.345,6.656,8.345,4.4,0,6.143-2.048,8.089-3.993h0.153v3.123l0.359,0.358Zm19.968-20.683a2.782,2.782,0,0,0-2.764-2.56c-2,0-4.659,1.229-6.912,4.147h-0.1v-3.533l-0.359-.358-7.065.563v0.512a5.4,5.4,0,0,1,2.509.819,3.394,3.394,0,0,1,1.382,2.714v15.512a2.247,2.247,0,0,1-1.433,2.355,7.486,7.486,0,0,1-2.253.307V746.9h11.878v-0.615a11.54,11.54,0,0,1-3.277-.563,2.316,2.316,0,0,1-1.382-2.355V728.675c0.717-1.28,2.764-3.686,5.478-3.686a4.082,4.082,0,0,0-.359,1.433,2.011,2.011,0,0,0,2.3,2.151C394.051,728.573,394.87,727.293,394.87,725.808Zm38.6,9.727c0-7.474-4.761-12.389-10.751-12.389a9.978,9.978,0,0,0-6.962,3.328l-0.2-.052v-2.611L415.2,723.5l-7.271.563v0.512a6.74,6.74,0,0,1,2.816.871,3.2,3.2,0,0,1,1.331,2.559v26.776c0,1.126-.358,2.355-1.331,2.662a11.2,11.2,0,0,1-2.764.41v0.614h12.543v-0.614a14.556,14.556,0,0,1-3.43-.717,2.544,2.544,0,0,1-1.434-2.457v-8.755h0.205a9.314,9.314,0,0,0,5.888,1.587A11.809,11.809,0,0,0,433.473,735.535Zm-4.1-.051c0,7.27-3.226,11.366-7.526,11.366a6.442,6.442,0,0,1-6.195-4.3V727.5a7.6,7.6,0,0,1,5.837-2.764C427.176,724.733,429.378,730.16,429.378,735.484Zm29.849-.41c0-6.706-4.352-11.928-11.109-11.928-6.861,0-11.417,5.068-11.417,12.338,0,7.424,5.222,12.082,10.956,12.082C454.978,747.566,459.227,741.781,459.227,735.074Zm-3.942.052c0,6.3-2.355,11.724-7.27,11.724-5.222,0-7.372-5.581-7.372-11.827,0-5.017,1.587-11.161,7.372-11.161C453.391,723.862,455.285,729.6,455.285,735.126Zm24.269-9.318a2.783,2.783,0,0,0-2.765-2.56c-2,0-4.659,1.229-6.911,4.147h-0.1v-3.533l-0.358-.358-7.065.563v0.512a5.4,5.4,0,0,1,2.509.819,3.394,3.394,0,0,1,1.382,2.714v15.512a2.247,2.247,0,0,1-1.434,2.355,7.479,7.479,0,0,1-2.252.307V746.9h11.877v-0.615a11.533,11.533,0,0,1-3.276-.563,2.316,2.316,0,0,1-1.383-2.355V728.675c0.717-1.28,2.765-3.686,5.478-3.686a4.076,4.076,0,0,0-.358,1.433,2.011,2.011,0,0,0,2.3,2.151C478.735,728.573,479.554,727.293,479.554,725.808Zm17.254,15h-0.819c-0.512,2.97-1.74,4.608-3.788,4.608-2.919,0-3.584-2-3.584-5.324V725.347h6.963v-1.433h-7.014v-8.038h-3.43v8.038h-5.12v1.433h5.017V740.4c0,4.5,1.895,6.911,5.734,6.911C494.658,747.31,496.3,744.341,496.808,740.808Zm20.428-28.158c0-1.894-1.177-3.993-4.5-3.993a9.612,9.612,0,0,0-6.758,2.97c-2.457,2.662-3.43,6.3-3.43,10.6v1.69H497.27v1.331h5.273v18.379a2.211,2.211,0,0,1-1.382,2.355,7.486,7.486,0,0,1-2.253.307V746.9h11.827v-0.615a13.283,13.283,0,0,1-3.277-.563,2.282,2.282,0,0,1-1.331-2.355V725.245h6.4v-1.331h-6.4c0-.871,0-2.611.051-3.379,0.307-8.089,2.048-10.956,5.376-10.956a1.725,1.725,0,0,1,1.433.716,10.81,10.81,0,0,0-.307,2.1,2.217,2.217,0,0,0,2.3,2.355A2.315,2.315,0,0,0,517.236,712.65Zm19.4,22.424c0-6.706-4.351-11.928-11.109-11.928-6.86,0-11.417,5.068-11.417,12.338,0,7.424,5.222,12.082,10.956,12.082C532.391,747.566,536.64,741.781,536.64,735.074Zm-3.942.052c0,6.3-2.355,11.724-7.27,11.724-5.222,0-7.372-5.581-7.372-11.827,0-5.017,1.587-11.161,7.372-11.161C530.8,723.862,532.7,729.6,532.7,735.126ZM550.465,746.9v-0.512a5.418,5.418,0,0,1-2.252-.563,2.434,2.434,0,0,1-1.383-2.407V709.067l-0.358-.359-8.14.512v0.512a10.548,10.548,0,0,1,3.532.973,3.5,3.5,0,0,1,1.382,2.918v30.1a2.213,2.213,0,0,1-1.382,2.355,7.483,7.483,0,0,1-2.252.307V746.9h10.853Zm10.752-33.892a2.557,2.557,0,0,0-2.714-2.458,2.759,2.759,0,0,0-2.611,2.765,2.656,2.656,0,0,0,2.611,2.611A2.811,2.811,0,0,0,561.217,713.009ZM564.34,746.9v-0.512a9.576,9.576,0,0,1-2.253-.563,2.482,2.482,0,0,1-1.382-2.407V723.862l-0.359-.358-7.577.563v0.41a7.523,7.523,0,0,1,2.97.973,3.153,3.153,0,0,1,1.433,2.559v15.718a2.292,2.292,0,0,1-1.382,2.355,7.486,7.486,0,0,1-2.253.307V746.9h10.8Zm25.291-11.827c0-6.706-4.352-11.928-11.11-11.928-6.86,0-11.416,5.068-11.416,12.338,0,7.424,5.222,12.082,10.956,12.082C585.382,747.566,589.631,741.781,589.631,735.074Zm-3.942.052c0,6.3-2.355,11.724-7.27,11.724-5.222,0-7.372-5.581-7.372-11.827,0-5.017,1.587-11.161,7.372-11.161C583.795,723.862,585.689,729.6,585.689,735.126Zm14.388,9.215a2.971,2.971,0,0,0-2.97-2.969,2.928,2.928,0,0,0-2.918,2.969,2.885,2.885,0,0,0,2.918,2.918A2.928,2.928,0,0,0,600.077,744.341Zm46.538-7.116H645.9c-0.359,1.484-3.175,5.99-4.4,7.372-0.973,1.075-5.222,1.382-8.192,1.382-5.682,0-6.143-.358-6.143-4.71V715.825a2.337,2.337,0,0,1,1.587-2.56,19.242,19.242,0,0,1,3.737-.717v-0.614H617.894v0.614a12.993,12.993,0,0,1,3.533.973,2.439,2.439,0,0,1,1.587,2.56v27.134a2.428,2.428,0,0,1-1.587,2.559,17.736,17.736,0,0,1-3.533.512V746.9h27.9Zm21.761,4.2-0.614-.359c-1.946,3.123-3.43,4.813-7.475,4.813-5.529,0-7.731-5.017-7.731-11.57V733.8h15.359v-0.359c0-5.836-2.457-10.29-9.112-10.29-6.451,0-10.189,5.938-10.189,11.98,0,6.655,3.379,12.287,10.752,12.287A9.822,9.822,0,0,0,668.376,741.423Zm-4.3-8.652-11.52.1c0.154-5.683,2.765-9.011,6.349-9.011C663.205,723.862,664.076,728.061,664.076,732.771Zm22.477,8.037h-0.819c-0.512,2.97-1.741,4.608-3.789,4.608-2.918,0-3.584-2-3.584-5.324V725.347h6.963v-1.433H678.31v-8.038h-3.43v8.038h-5.119v1.433h5.017V740.4c0,4.5,1.894,6.911,5.734,6.911C684.4,747.31,686.041,744.341,686.553,740.808Zm8.653-27.031c0-2.867-.87-4.608-3.634-4.608a2.709,2.709,0,0,0-2.458,2.611,2.651,2.651,0,0,0,2.97,2.713h1.535c-0.2,2.919-2.508,5.069-5.017,6.554l0.461,0.768C693.056,719.818,695.206,716.388,695.206,713.777ZM711.023,740.5c0-4.249-2.713-6.092-6.962-7.474-4.3-1.383-6.246-1.9-6.246-4.966,0-2.355,1.433-4.147,4.607-4.147,3.431,0,6.093,2.713,6.861,5.99H709.9l-0.358-6.81h-0.563L708,724.682a9.658,9.658,0,0,0-5.325-1.536c-4.351,0-7.065,2.764-7.065,6.5,0,4.3,2.919,5.887,7.014,7.167,4.147,1.28,6.2,2.253,6.2,4.966,0,2.867-1.587,4.915-5.632,4.915-3.891,0-6.6-3.123-7.577-7.27H695l0.256,7.68h0.563l0.973-1.588a11.118,11.118,0,0,0,6.194,2.048C707.44,747.566,711.023,744.8,711.023,740.5Zm41.676,5.99v-0.614a7.721,7.721,0,0,1-3.021-.615,2.969,2.969,0,0,1-1.331-2.508V709.067l-0.358-.359-9.062.512v0.564a11.634,11.634,0,0,1,4.5,1.126,3.642,3.642,0,0,1,1.331,2.969v10.649a15.164,15.164,0,0,0-6.2-1.382,11.828,11.828,0,0,0-11.775,11.877c0,7.68,4.813,12.492,10.956,12.492a9.959,9.959,0,0,0,6.861-3.174l0.205,0.051v2.2l0.358,0.358Zm-7.936-3.327c-1.433,1.484-3.02,2.866-5.682,2.866-5.734,0-8.243-5.119-8.243-10.392,0-7.219,3.225-11.776,7.526-11.776a6.589,6.589,0,0,1,6.4,4.506v14.8Zm32.563-8.09c0-6.706-4.352-11.928-11.11-11.928-6.86,0-11.417,5.068-11.417,12.338,0,7.424,5.222,12.082,10.956,12.082C773.076,747.566,777.326,741.781,777.326,735.074Zm-3.943.052c0,6.3-2.355,11.724-7.269,11.724-5.222,0-7.373-5.581-7.373-11.827,0-5.017,1.587-11.161,7.373-11.161C771.489,723.862,773.383,729.6,773.383,735.126Zm34.611,5.682h-0.819c-0.512,2.97-1.741,4.608-3.788,4.608-2.918,0-3.584-2-3.584-5.324V725.347h6.963v-1.433h-7.014v-8.038h-3.43v8.038H791.2v1.433h5.017V740.4c0,4.5,1.894,6.911,5.734,6.911C805.844,747.31,807.482,744.341,807.994,740.808Zm27.75,6.093v-0.615a6.053,6.053,0,0,1-2.253-.512,2.359,2.359,0,0,1-1.382-2.355V731.235c0-4.864-2.048-8.089-6.81-8.089-4.4,0-6.45,2.3-8.4,4.2h-0.1V709.067l-0.358-.359-7.987.512v0.615a9.625,9.625,0,0,1,3.379.768,3.6,3.6,0,0,1,1.382,2.969v30.052a2.211,2.211,0,0,1-1.382,2.355,7.486,7.486,0,0,1-2.253.307V746.9H820.9v-0.615a7.188,7.188,0,0,1-2.611-.563,2.438,2.438,0,0,1-1.485-2.355V728.675a7.949,7.949,0,0,1,6.963-3.737c2.406,0,4.71,2,4.71,5.58v13.106a2.244,2.244,0,0,1-1.587,2.355,12.586,12.586,0,0,1-2.611.307V746.9h11.468Zm10.65-33.892a2.557,2.557,0,0,0-2.713-2.458,2.759,2.759,0,0,0-2.611,2.765,2.656,2.656,0,0,0,2.611,2.611A2.81,2.81,0,0,0,846.394,713.009Zm3.123,33.892v-0.512a9.6,9.6,0,0,1-2.253-.563,2.482,2.482,0,0,1-1.382-2.407V723.862l-0.358-.358-7.577.563v0.41a7.518,7.518,0,0,1,2.969.973,3.154,3.154,0,0,1,1.434,2.559v15.718a2.292,2.292,0,0,1-1.383,2.355,7.486,7.486,0,0,1-2.253.307V746.9h10.8Zm18.943-6.4c0-4.249-2.713-6.092-6.963-7.474-4.3-1.383-6.246-1.9-6.246-4.966,0-2.355,1.434-4.147,4.608-4.147,3.43,0,6.092,2.713,6.86,5.99h0.615l-0.359-6.81h-0.563l-0.973,1.588a9.652,9.652,0,0,0-5.324-1.536c-4.352,0-7.065,2.764-7.065,6.5,0,4.3,2.918,5.887,7.014,7.167,4.147,1.28,6.2,2.253,6.2,4.966,0,2.867-1.588,4.915-5.632,4.915-3.891,0-6.6-3.123-7.577-7.27h-0.614l0.256,7.68h0.563l0.973-1.588a11.118,11.118,0,0,0,6.194,2.048C864.876,747.566,868.46,744.8,868.46,740.5Zm13.876-26.417a2.7,2.7,0,1,0-5.325,0c0,1.843,1.843,13.311,2.2,22.219h0.82C880.6,727.293,882.336,715.876,882.336,714.084Zm0.255,30.257a2.971,2.971,0,0,0-2.969-2.969,2.928,2.928,0,0,0-2.918,2.969,2.885,2.885,0,0,0,2.918,2.918A2.928,2.928,0,0,0,882.591,744.341Z"/>
</svg>
