<svg xmlns="http://www.w3.org/2000/svg" xmlns:xlink="http://www.w3.org/1999/xlink" preserveAspectRatio="xMidYMid" width="34" height="34" viewBox="0 0 34 34">
  <defs>
    <style>
      .cls-1 {
        fill: #ffd300;
        fill-rule: evenodd;
      }
    </style>
  </defs>
  <path d="M28.660,5.903 C28.660,5.903 29.272,6.196 30.327,6.461 C31.993,6.879 34.007,5.415 34.007,5.415 C34.007,5.415 34.076,8.762 29.702,8.343 C29.702,8.343 31.299,10.365 33.522,9.389 C33.522,9.389 33.522,11.828 29.354,11.340 C29.354,11.340 31.021,13.431 32.758,13.083 C32.758,13.083 32.063,15.872 28.730,14.059 C28.730,14.059 29.354,16.846 31.993,17.196 C31.993,17.196 30.188,20.611 27.063,16.150 C27.063,16.150 28.383,21.657 30.883,22.354 C30.883,22.354 29.493,24.599 27.619,22.633 C26.091,21.029 24.702,16.987 24.702,16.987 C24.702,16.987 24.007,20.681 26.160,22.145 C26.160,22.145 24.275,23.685 22.896,21.377 C22.063,19.984 22.271,16.568 22.271,16.568 C22.271,16.568 21.160,19.078 22.132,20.402 C22.132,20.402 19.979,19.984 19.909,18.380 C19.881,17.726 19.911,16.653 19.956,15.613 C18.287,17.525 19.097,19.721 19.338,20.258 C20.376,20.700 22.037,21.559 22.688,22.772 C22.688,22.772 22.489,22.836 22.235,22.962 C23.136,23.674 24.617,24.690 25.582,24.523 C26.706,24.329 26.899,23.532 26.899,23.532 C26.899,23.532 28.991,22.910 28.991,25.010 C28.991,25.010 28.797,24.387 28.294,24.465 C28.294,24.465 27.519,24.893 27.209,24.349 C27.209,24.349 26.395,24.738 26.241,25.088 C26.241,25.088 28.448,25.244 29.146,26.293 C29.146,26.293 29.573,26.953 29.069,27.848 C29.069,27.848 29.185,27.187 28.720,26.993 C28.720,26.993 27.751,27.148 27.751,26.215 C27.751,26.215 27.364,25.865 26.860,26.137 C26.356,26.409 25.970,25.788 25.970,25.788 C25.970,25.788 26.958,27.383 26.812,28.508 C26.804,28.562 26.795,28.614 26.783,28.664 C26.512,29.793 26.434,29.520 26.047,29.598 C26.047,29.598 26.395,29.520 26.318,28.898 C26.318,28.898 25.582,28.082 26.202,27.654 C26.202,27.654 26.289,27.129 25.892,26.953 C25.272,26.682 25.040,26.215 25.040,25.943 C25.040,25.943 24.188,26.448 23.993,26.215 C23.800,25.982 23.644,25.943 23.451,26.176 C23.257,26.409 23.025,26.448 22.831,26.448 C22.831,26.448 22.444,26.720 22.599,27.187 C22.599,27.187 21.823,26.293 22.637,25.554 C22.637,25.554 23.954,25.671 24.652,25.244 C24.652,25.244 23.103,24.271 22.134,24.154 C21.809,24.115 21.497,23.981 21.220,23.825 C21.059,24.090 20.966,24.409 21.021,24.794 C21.021,24.794 18.900,24.290 18.175,21.652 C18.022,22.036 17.887,22.573 17.887,23.312 C17.887,25.247 19.449,24.776 19.449,24.776 C19.709,26.084 18.303,26.031 18.303,26.031 C18.303,26.031 18.876,27.233 20.283,27.338 C21.689,27.442 20.907,26.345 20.907,26.345 C22.887,26.188 21.845,27.965 21.845,27.965 C21.845,27.965 23.564,27.547 24.189,28.645 C25.094,30.233 23.407,30.683 23.407,30.683 C24.294,29.846 23.512,29.063 22.887,29.376 C22.262,29.691 21.949,29.376 21.949,29.376 C22.470,31.625 20.543,31.050 20.543,31.050 C21.272,30.370 20.526,29.829 19.398,29.168 C18.147,28.436 17.574,27.129 17.574,27.129 C17.574,30.736 19.918,30.422 19.918,30.422 C19.969,32.671 17.938,31.363 17.938,31.363 C17.938,32.722 17.001,33.141 17.001,33.141 C17.001,33.141 16.064,32.722 16.064,31.363 C16.064,31.363 14.033,32.671 14.084,30.422 C14.084,30.422 16.428,30.736 16.428,27.129 C16.428,27.129 15.855,28.436 14.605,29.168 C13.477,29.829 12.730,30.370 13.459,31.050 C13.459,31.050 11.532,31.625 12.053,29.376 C12.053,29.376 11.741,29.691 11.116,29.376 C10.491,29.063 9.709,29.846 10.595,30.683 C10.595,30.683 8.909,30.233 9.813,28.645 C10.439,27.547 12.158,27.965 12.158,27.965 C12.158,27.965 11.116,26.188 13.095,26.345 C13.095,26.345 12.313,27.442 13.720,27.338 C15.126,27.233 15.700,26.031 15.700,26.031 C15.700,26.031 14.292,26.084 14.553,24.776 C14.553,24.776 16.116,25.247 16.116,23.312 C16.116,22.573 15.981,22.036 15.827,21.652 C15.103,24.290 12.982,24.794 12.982,24.794 C13.037,24.409 12.944,24.090 12.783,23.825 C12.506,23.981 12.193,24.115 11.869,24.154 C10.900,24.271 9.351,25.244 9.351,25.244 C10.049,25.671 11.365,25.554 11.365,25.554 C12.179,26.293 11.404,27.187 11.404,27.187 C11.558,26.720 11.171,26.448 11.171,26.448 C10.978,26.448 10.745,26.409 10.552,26.176 C10.358,25.943 10.203,25.982 10.009,26.215 C9.815,26.448 8.963,25.943 8.963,25.943 C8.963,26.215 8.730,26.682 8.111,26.953 C7.713,27.129 7.801,27.654 7.801,27.654 C8.420,28.082 7.685,28.898 7.685,28.898 C7.607,29.520 7.955,29.598 7.955,29.598 C7.568,29.520 7.491,29.793 7.220,28.664 C7.207,28.614 7.198,28.562 7.191,28.508 C7.044,27.383 8.033,25.788 8.033,25.788 C8.033,25.788 7.647,26.409 7.142,26.137 C6.638,25.865 6.251,26.215 6.251,26.215 C6.251,27.148 5.282,26.993 5.282,26.993 C4.818,27.187 4.933,27.848 4.933,27.848 C4.430,26.953 4.856,26.293 4.856,26.293 C5.554,25.244 7.762,25.088 7.762,25.088 C7.608,24.738 6.793,24.349 6.793,24.349 C6.483,24.893 5.709,24.465 5.709,24.465 C5.205,24.387 5.011,25.010 5.011,25.010 C5.011,22.910 7.103,23.532 7.103,23.532 C7.103,23.532 7.298,24.329 8.421,24.523 C9.386,24.690 10.866,23.674 11.767,22.961 C11.514,22.836 11.315,22.772 11.315,22.772 C11.966,21.560 13.626,20.701 14.664,20.258 C14.905,19.722 15.716,17.525 14.046,15.613 C14.091,16.653 14.121,17.726 14.093,18.380 C14.024,19.984 11.871,20.402 11.871,20.402 C12.843,19.078 11.732,16.568 11.732,16.568 C11.732,16.568 11.940,19.984 11.107,21.377 C9.728,23.685 7.842,22.145 7.842,22.145 C9.996,20.681 9.301,16.987 9.301,16.987 C9.301,16.987 7.912,21.029 6.384,22.633 C4.509,24.599 3.120,22.354 3.120,22.354 C5.620,21.657 6.939,16.150 6.939,16.150 C3.815,20.611 2.009,17.196 2.009,17.196 C4.648,16.846 5.273,14.059 5.273,14.059 C1.939,15.872 1.245,13.083 1.245,13.083 C2.981,13.431 4.648,11.340 4.648,11.340 C0.481,11.828 0.481,9.389 0.481,9.389 C2.703,10.365 4.301,8.343 4.301,8.343 C-0.074,8.762 -0.005,5.415 -0.005,5.415 C-0.005,5.415 2.009,6.879 3.676,6.461 C4.730,6.196 5.342,5.903 5.342,5.903 C0.411,5.625 1.871,2.488 1.871,2.488 C3.120,4.579 6.176,3.533 6.176,3.533 C3.815,2.558 5.204,0.884 5.204,0.884 C5.620,2.906 8.745,2.070 10.620,2.837 C12.496,3.604 10.899,5.137 10.899,5.137 C11.176,4.370 8.398,4.440 8.120,8.134 C7.842,11.828 10.760,12.386 10.760,12.386 C11.229,11.445 12.747,12.071 13.478,12.443 C13.950,12.271 14.350,11.949 14.427,11.355 C14.427,11.355 14.039,11.645 13.576,11.239 C13.576,11.239 15.108,10.768 15.366,9.743 C15.513,9.166 15.901,8.877 15.901,8.877 C15.901,8.877 15.731,8.875 15.509,8.815 C15.323,8.765 15.132,8.571 15.451,8.296 C15.451,8.296 15.851,8.742 16.445,8.115 C16.407,7.768 16.195,7.441 16.195,7.441 C16.195,7.441 15.134,6.998 14.838,7.488 C14.838,7.488 14.028,6.524 16.493,6.705 C16.493,6.705 16.498,6.675 16.502,6.634 C16.140,6.401 15.604,6.271 14.901,6.680 C13.491,7.504 12.731,6.957 12.704,6.398 C12.678,5.841 13.334,5.768 13.334,5.768 C13.334,5.768 12.701,7.312 14.840,6.442 C15.580,6.141 16.075,6.123 16.422,6.216 C16.314,6.004 16.072,5.796 15.521,5.763 C15.521,5.763 14.685,4.839 14.052,5.751 C14.052,5.751 13.097,4.700 14.563,4.362 C16.027,4.024 18.199,3.925 18.873,4.478 C18.873,4.478 19.329,4.813 19.529,5.352 C19.722,5.876 20.237,6.395 20.755,6.022 C20.797,6.088 20.544,7.273 19.237,5.875 C19.237,5.875 19.544,6.753 19.651,7.407 C19.748,7.996 20.283,9.021 20.778,8.439 C20.778,8.439 21.039,8.902 20.345,8.943 C19.435,8.999 19.167,7.776 19.167,7.776 C19.167,7.776 18.778,9.664 19.635,10.109 C19.857,10.224 19.965,9.932 19.965,9.932 C19.965,9.932 20.275,10.529 19.532,10.436 C18.787,10.343 18.868,9.809 18.868,9.809 C18.868,9.809 18.688,11.021 19.574,11.449 C19.574,11.449 19.327,11.739 18.987,11.514 C18.987,11.514 19.096,12.362 20.317,12.553 C20.904,12.230 22.721,11.338 23.243,12.386 C23.243,12.386 26.160,11.828 25.882,8.134 C25.604,4.440 22.826,4.370 23.104,5.137 C23.104,5.137 21.507,3.604 23.382,2.837 C25.257,2.070 28.383,2.906 28.799,0.884 C28.799,0.884 30.188,2.558 27.826,3.533 C27.826,3.533 30.883,4.579 32.132,2.488 C32.132,2.488 33.591,5.625 28.660,5.903 ZM17.121,3.749 C16.418,3.749 15.815,3.854 15.815,3.854 L13.968,1.684 C13.968,1.684 14.547,1.239 14.664,1.784 C14.664,1.784 14.994,1.365 15.360,1.749 C15.580,1.980 15.333,2.239 15.586,2.467 C15.827,2.687 16.337,2.659 16.589,2.483 C16.893,2.271 16.854,1.818 16.223,1.769 C16.223,1.769 16.072,1.231 16.784,1.400 C16.784,1.400 16.704,0.858 17.122,0.858 C17.541,0.858 17.462,1.400 17.462,1.400 C18.173,1.231 18.023,1.769 18.023,1.769 C17.392,1.818 17.352,2.271 17.655,2.483 C17.908,2.659 18.418,2.687 18.661,2.467 C18.912,2.239 18.666,1.980 18.885,1.749 C19.251,1.365 19.582,1.784 19.582,1.784 C19.698,1.239 20.278,1.684 20.278,1.684 L18.430,3.854 C18.430,3.854 17.824,3.749 17.121,3.749 Z" class="cls-1"/>
</svg>
